<?xml version="1.0" encoding="utf-8"?>
<!-- Generator: Adobe Illustrator 25.0.1, SVG Export Plug-In . SVG Version: 6.00 Build 0)  -->
<svg version="1.1" id="Слой_1" xmlns="http://www.w3.org/2000/svg" xmlns:xlink="http://www.w3.org/1999/xlink" x="0px" y="0px"
	 viewBox="0 0 24 24" style="enable-background:new 0 0 24 24;" xml:space="preserve">
<path d="M12,0.9C5.7,0.9,0.5,6,0.5,12.4c0,5.1,3.3,9.4,7.9,10.9C9,23.4,9.2,23,9.2,22.7v-2.1c-3.2,0.7-3.9-1.4-3.9-1.4
	C4.8,17.9,4,17.5,4,17.5c-1-0.7,0.1-0.7,0.1-0.7C5.2,16.9,5.8,18,5.8,18c1,1.8,2.7,1.3,3.3,1c0.1-0.7,0.4-1.3,0.7-1.5
	c-2.6-0.3-5.2-1.3-5.2-5.7c0-1.3,0.4-2.3,1.2-3.1C5.8,8.4,5.4,7.2,6,5.6c0,0,1-0.3,3.2,1.2c0.9-0.3,1.9-0.4,2.9-0.4
	c1,0,2,0.1,2.9,0.4c2.2-1.5,3.2-1.2,3.2-1.2c0.6,1.6,0.2,2.8,0.1,3c0.7,0.8,1.2,1.8,1.2,3.1c0,4.4-2.7,5.4-5.3,5.7
	c0.4,0.4,0.8,1.1,0.8,2.1v3.2c0,0.3,0.2,0.7,0.8,0.6c4.6-1.5,7.9-5.8,7.9-10.9C23.5,6,18.4,0.9,12,0.9z"/>
</svg>
