<?xml version="1.0" encoding="UTF-8" standalone="no"?>
<!-- Created with Inkscape (http://www.inkscape.org/) -->

<svg
   xmlns:dc="http://purl.org/dc/elements/1.1/"
   xmlns:cc="http://creativecommons.org/ns#"
   xmlns:rdf="http://www.w3.org/1999/02/22-rdf-syntax-ns#"
   xmlns:svg="http://www.w3.org/2000/svg"
   xmlns="http://www.w3.org/2000/svg"
   xmlns:sodipodi="http://sodipodi.sourceforge.net/DTD/sodipodi-0.dtd"
   xmlns:inkscape="http://www.inkscape.org/namespaces/inkscape"
   version="1.1"
   id="svg3459"
   width="666.66669"
   height="1224"
   viewBox="0 0 666.66669 1224"
   sodipodi:docname="icon_header_4.svg"
   inkscape:export-filename="icon_header_4.png"
   inkscape:export-xdpi="96"
   inkscape:export-ydpi="96"
   inkscape:version="0.92.3 (2405546, 2018-03-11)">
  <metadata
     id="metadata3465">
    <rdf:RDF>
      <cc:Work
         rdf:about="">
        <dc:format>image/svg+xml</dc:format>
        <dc:type
           rdf:resource="http://purl.org/dc/dcmitype/StillImage" />
        <dc:title></dc:title>
      </cc:Work>
    </rdf:RDF>
  </metadata>
  <defs
     id="defs3463">
    <clipPath
       clipPathUnits="userSpaceOnUse"
       id="clipPath215">
      <path
         d="m 771.647,455.357 1.874,-3.278 13.476,7.769 -1.965,3.276 z"
         id="path213"
         inkscape:connector-curvature="0" />
    </clipPath>
    <clipPath
       clipPathUnits="userSpaceOnUse"
       id="clipPath203">
      <path
         d="m 748.716,460.317 13.479,-7.77 1.87,3.371 -13.384,7.674 z"
         id="path201"
         inkscape:connector-curvature="0" />
    </clipPath>
    <clipPath
       clipPathUnits="userSpaceOnUse"
       id="clipPath191">
      <path
         d="m 771.647,447.024 14.509,-8.423 1.871,3.369 -14.507,8.331 z"
         id="path189"
         inkscape:connector-curvature="0" />
    </clipPath>
    <clipPath
       clipPathUnits="userSpaceOnUse"
       id="clipPath179">
      <path
         d="m 749.09,442.252 1.873,-3.276 12.261,7.02 -1.966,3.276 z"
         id="path177"
         inkscape:connector-curvature="0" />
    </clipPath>
  </defs>
  <sodipodi:namedview
     pagecolor="#ffffff"
     bordercolor="#666666"
     borderopacity="1"
     objecttolerance="10"
     gridtolerance="10"
     guidetolerance="10"
     inkscape:pageopacity="0"
     inkscape:pageshadow="2"
     inkscape:window-width="3840"
     inkscape:window-height="2049"
     id="namedview3461"
     showgrid="false"
     inkscape:zoom="1.6272544"
     inkscape:cx="346.848"
     inkscape:cy="710.52788"
     inkscape:window-x="0"
     inkscape:window-y="55"
     inkscape:window-maximized="1"
     inkscape:current-layer="svg3459" />
  <g
     id="g229"
     transform="matrix(8.9623411,0,0,-8.9623411,384.06949,326.47642)"
     inkscape:export-xdpi="96"
     inkscape:export-ydpi="96">
    <path
       d="m 0,0 -4.774,2.715 c -0.374,0.187 -0.842,0.187 -1.31,0 L -10.764,0 c -0.28,-0.187 -0.374,-0.561 -0.187,-0.842 0.093,-0.094 0.093,-0.187 0.187,-0.187 l 4.774,-2.714 c 0.374,-0.188 0.842,-0.188 1.31,0 l 4.774,2.714 c 0.28,0.187 0.374,0.561 0.187,0.842 C 0.187,-0.187 0.094,-0.093 0,0"
       style="fill:#2b3840;fill-opacity:1;fill-rule:nonzero;stroke:none"
       id="path231"
       inkscape:connector-curvature="0" />
  </g>
  <g
     id="g233"
     transform="matrix(8.9623411,0,0,-8.9623411,332.90173,370.9332)"
     inkscape:export-xdpi="96"
     inkscape:export-ydpi="96">
    <path
       d="m 0,0 c 0.187,-0.093 0.468,-0.093 0.655,0 l 4.867,2.809 c 0.187,0.093 0.374,0 0.468,-0.094 V 2.528 1.217 C 5.99,1.124 5.896,1.03 5.803,0.937 l -5.335,-3.09 c -0.188,-0.093 -0.375,0 -0.562,0.094 L -5.335,0.843 C -5.429,0.937 -5.523,1.03 -5.523,1.124 v 1.404 c 0,0.187 0.188,0.374 0.281,0.374 h 0.188 z"
       style="fill:#2b3840;fill-opacity:1;fill-rule:nonzero;stroke:none"
       id="path235"
       inkscape:connector-curvature="0" />
  </g>
  <g
     id="g237"
     transform="matrix(8.9623411,0,0,-8.9623411,332.90173,397.77275)"
     inkscape:export-xdpi="96"
     inkscape:export-ydpi="96">
    <path
       d="m 0,0 c 0.187,-0.094 0.468,-0.094 0.655,0 l 4.867,2.808 c 0.187,0.094 0.374,0 0.468,-0.094 V 2.527 1.217 C 5.99,1.123 5.896,1.03 5.803,0.936 L 0.468,-2.153 c -0.188,-0.094 -0.375,0 -0.562,0.093 L -5.335,0.842 C -5.429,0.936 -5.523,1.03 -5.523,1.123 v 1.404 c 0,0.187 0.188,0.281 0.375,0.281 h 0.187 z"
       style="fill:#2b3840;fill-opacity:1;fill-rule:nonzero;stroke:none"
       id="path239"
       inkscape:connector-curvature="0" />
  </g>
  <g
     id="g241"
     transform="matrix(8.9623411,0,0,-8.9623411,180.22465,211.54783)"
     inkscape:export-xdpi="96"
     inkscape:export-ydpi="96">
    <path
       d="m 0,0 -4.774,2.715 c -0.373,0.187 -0.842,0.187 -1.31,0 L -10.857,0 c -0.281,-0.187 -0.374,-0.562 -0.187,-0.843 0.094,-0.093 0.094,-0.186 0.187,-0.186 l 4.773,-2.715 c 0.375,-0.187 0.843,-0.187 1.31,0 L 0,-1.029 c 0.281,0.186 0.375,0.561 0.187,0.842 C 0.187,-0.094 0.094,0 0,0"
       style="fill:#242424;fill-opacity:1;fill-rule:nonzero;stroke:none"
       id="path243"
       inkscape:connector-curvature="0" />
  </g>
  <g
     id="g245"
     transform="matrix(8.9623411,0,0,-8.9623411,129.05606,255.17114)"
     inkscape:export-xdpi="96"
     inkscape:export-ydpi="96"
     style="fill:#242424;fill-opacity:1">
    <path
       d="m 0,0 c 0.187,-0.093 0.468,-0.093 0.655,0 l 4.867,2.809 c 0.187,0.093 0.374,0 0.468,-0.094 V 2.528 1.217 C 5.99,1.124 5.896,1.03 5.803,0.937 l -5.335,-3.09 c -0.187,-0.093 -0.375,0 -0.562,0.094 L -5.241,0.749 C -5.335,0.843 -5.429,0.937 -5.429,1.03 v 1.404 c 0,0.187 0.094,0.375 0.281,0.375 h 0.188 z"
       style="fill:#242424;fill-opacity:1;fill-rule:nonzero;stroke:none"
       id="path247"
       inkscape:connector-curvature="0" />
  </g>
  <g
     id="g249"
     transform="matrix(8.9623411,0,0,-8.9623411,129.05606,282.85045)"
     inkscape:export-xdpi="96"
     inkscape:export-ydpi="96"
     style="fill:#242424;fill-opacity:1">
    <path
       d="m 0,0 c 0.187,-0.094 0.468,-0.094 0.655,0 l 4.867,2.808 c 0.187,0.093 0.374,0 0.468,-0.093 V 2.527 1.216 C 5.99,1.123 5.896,1.029 5.803,0.936 L 0.562,-2.059 C 0.374,-2.153 0.187,-2.059 0,-1.966 l -5.148,2.809 c -0.093,0.093 -0.187,0.186 -0.187,0.28 v 1.404 c 0,0.188 0.094,0.374 0.281,0.374 h 0.187 z"
       style="fill:#242424;fill-opacity:1;fill-rule:nonzero;stroke:none"
       id="path251"
       inkscape:connector-curvature="0" />
  </g>
  <g
     id="g253"
     transform="matrix(8.9623411,0,0,-8.9623411,588.74607,211.54783)"
     inkscape:export-xdpi="96"
     inkscape:export-ydpi="96"
     style="fill:#242424;fill-opacity:1">
    <path
       d="m 0,0 -4.773,2.808 c -0.374,0.187 -0.842,0.187 -1.311,0 l -4.773,-2.715 c -0.28,-0.187 -0.374,-0.561 -0.187,-0.842 0.094,-0.094 0.094,-0.187 0.187,-0.187 l 4.773,-2.714 c 0.375,-0.188 0.843,-0.188 1.311,0 L 0,-0.936 c 0.281,0.187 0.375,0.561 0.188,0.842 C 0.188,-0.094 0.094,0 0,0"
       style="fill:#242424;fill-opacity:1;fill-rule:nonzero;stroke:none"
       id="path255"
       inkscape:connector-curvature="0" />
  </g>
  <g
     id="g257"
     transform="matrix(8.9623411,0,0,-8.9623411,537.58015,255.17114)"
     inkscape:export-xdpi="96"
     inkscape:export-ydpi="96"
     style="fill:#242424;fill-opacity:1">
    <path
       d="m 0,0 c 0.187,-0.093 0.468,-0.093 0.655,0 l 4.867,2.809 c 0.187,0.093 0.375,0 0.468,-0.094 V 2.528 1.217 C 5.99,1.124 5.897,1.03 5.803,0.937 L 0.468,-2.153 C 0.281,-2.246 0.094,-2.246 -0.094,-2.059 L -5.335,0.749 C -5.428,0.843 -5.522,0.937 -5.522,1.03 v 1.404 c 0,0.187 0.094,0.375 0.281,0.375 0.093,0 0.187,0 0.187,-0.094 z"
       style="fill:#242424;fill-opacity:1;fill-rule:nonzero;stroke:none"
       id="path259"
       inkscape:connector-curvature="0" />
  </g>
  <g
     id="g261"
     transform="matrix(8.9623411,0,0,-8.9623411,537.58015,282.85045)"
     inkscape:export-xdpi="96"
     inkscape:export-ydpi="96"
     style="fill:#242424;fill-opacity:1">
    <path
       d="m 0,0 c 0.187,-0.094 0.468,-0.094 0.655,0 l 4.867,2.808 c 0.187,0.093 0.375,0 0.468,-0.093 V 2.527 1.216 C 5.99,1.123 5.897,1.029 5.803,0.936 L 0.562,-2.059 C 0.375,-2.153 0.187,-2.153 0,-1.966 l -5.241,2.902 c -0.094,0.093 -0.187,0.187 -0.187,0.28 v 1.311 c -0.094,0.188 0.093,0.374 0.187,0.374 0.093,0 0.28,0 0.28,-0.093 z"
       style="fill:#242424;fill-opacity:1;fill-rule:nonzero;stroke:none"
       id="path263"
       inkscape:connector-curvature="0" />
  </g>
  <g
     id="g265"
     transform="matrix(8.9623411,0,0,-8.9623411,384.06949,562.19316)"
     inkscape:export-xdpi="96"
     inkscape:export-ydpi="96"
     style="fill:#242424;fill-opacity:1">
    <path
       d="m 0,0 -4.774,2.715 c -0.374,0.187 -0.842,0.187 -1.31,0 L -10.858,0 c -0.28,-0.187 -0.374,-0.562 -0.186,-0.843 0.093,-0.093 0.093,-0.186 0.186,-0.186 l 4.774,-2.715 c 0.375,-0.187 0.843,-0.187 1.31,0 L 0,-1.029 c 0.281,0.186 0.374,0.561 0.187,0.842 C 0.094,-0.093 0.094,-0.093 0,0"
       style="fill:#242424;fill-opacity:1;fill-rule:nonzero;stroke:none"
       id="path267"
       inkscape:connector-curvature="0" />
  </g>
  <g
     id="g269"
     transform="matrix(8.9623411,0,0,-8.9623411,332.90173,606.64994)"
     inkscape:export-xdpi="96"
     inkscape:export-ydpi="96"
     style="fill:#242424;fill-opacity:1">
    <path
       d="m 0,0 c 0.187,-0.094 0.468,-0.094 0.655,0 l 4.867,2.808 c 0.187,0.094 0.374,0 0.468,-0.093 V 2.527 1.31 C 5.99,1.216 5.896,1.124 5.803,1.03 L 0.468,-2.059 c -0.188,-0.094 -0.375,0 -0.562,0.093 l -5.241,2.902 c -0.094,0.094 -0.188,0.188 -0.188,0.28 v 1.405 c 0,0.187 0.188,0.374 0.281,0.374 0.094,0 0.094,0 0.188,-0.093 z"
       style="fill:#242424;fill-opacity:1;fill-rule:nonzero;stroke:none"
       id="path271"
       inkscape:connector-curvature="0" />
  </g>
  <g
     id="g273"
     transform="matrix(8.9623411,0,0,-8.9623411,332.90173,633.49574)"
     inkscape:export-xdpi="96"
     inkscape:export-ydpi="96"
     style="fill:#242424;fill-opacity:1">
    <path
       d="m 0,0 c 0.187,-0.093 0.468,-0.093 0.655,0 l 4.867,2.808 c 0.187,0.093 0.374,0 0.468,-0.093 V 2.528 1.217 C 5.99,1.123 5.896,1.029 5.803,0.936 L 0.468,-2.152 c -0.188,-0.094 -0.375,0 -0.562,0.093 L -5.335,0.75 c -0.094,0.093 -0.188,0.186 -0.188,0.279 v 1.405 c 0,0.187 0.188,0.281 0.375,0.281 h 0.187 z"
       style="fill:#242424;fill-opacity:1;fill-rule:nonzero;stroke:none"
       id="path275"
       inkscape:connector-curvature="0" />
  </g>
  <g
     id="g277"
     transform="matrix(8.9623411,0,0,-8.9623411,384.06949,91.593164)"
     inkscape:export-xdpi="96"
     inkscape:export-ydpi="96"
     style="fill:#242424;fill-opacity:1">
    <path
       d="m 0,0 -4.774,2.715 c -0.374,0.187 -0.935,0.187 -1.31,0 L -10.858,0 c -0.28,-0.187 -0.374,-0.562 -0.186,-0.843 0.093,-0.093 0.093,-0.186 0.186,-0.186 l 4.774,-2.715 c 0.375,-0.187 0.843,-0.187 1.31,0 L 0,-1.029 c 0.281,0.186 0.374,0.561 0.281,0.842 C 0.094,-0.094 0.094,-0.094 0,0"
       style="fill:#242424;fill-opacity:1;fill-rule:nonzero;stroke:none"
       id="path279"
       inkscape:connector-curvature="0" />
  </g>
  <g
     id="g281"
     transform="matrix(8.9623411,0,0,-8.9623411,332.90173,135.20839)"
     inkscape:export-xdpi="96"
     inkscape:export-ydpi="96"
     style="fill:#242424;fill-opacity:1">
    <path
       d="m 0,0 c 0.187,-0.094 0.468,-0.094 0.655,0 l 4.867,2.808 c 0.187,0.094 0.374,0 0.468,-0.094 V 2.527 1.216 C 5.99,1.123 5.896,1.03 5.803,0.936 L 0.468,-2.153 c -0.188,-0.094 -0.375,0 -0.562,0.093 L -5.335,0.749 C -5.429,0.842 -5.523,0.936 -5.523,1.03 v 1.403 c 0,0.188 0.188,0.281 0.375,0.281 h 0.094 z"
       style="fill:#242424;fill-opacity:1;fill-rule:nonzero;stroke:none"
       id="path283"
       inkscape:connector-curvature="0" />
  </g>
  <g
     id="g285"
     transform="matrix(8.9623411,0,0,-8.9623411,332.90173,162.89576)"
     inkscape:export-xdpi="96"
     inkscape:export-ydpi="96"
     style="fill:#242424;fill-opacity:1">
    <path
       d="m 0,0 c 0.187,-0.093 0.468,-0.093 0.655,0 l 4.867,2.809 c 0.187,0.092 0.374,0 0.468,-0.094 V 2.528 1.217 C 5.99,1.123 5.896,1.029 5.803,0.937 l -5.335,-3.09 c -0.188,-0.093 -0.375,0 -0.562,0.094 l -5.148,2.902 c -0.093,0.094 -0.187,0.186 -0.187,0.28 v 1.405 c 0,0.187 0.187,0.373 0.375,0.373 h 0.187 z"
       style="fill:#242424;fill-opacity:1;fill-rule:nonzero;stroke:none"
       id="path287"
       inkscape:connector-curvature="0" />
  </g>
  <g
     id="g289"
     transform="matrix(8.9623411,0,0,-8.9623411,180.22465,443.91267)"
     inkscape:export-xdpi="96"
     inkscape:export-ydpi="96"
     style="fill:#242424;fill-opacity:1">
    <path
       d="m 0,0 -4.774,2.715 c -0.373,0.186 -0.842,0.186 -1.31,0 L -10.764,0 c -0.28,-0.187 -0.374,-0.562 -0.186,-0.843 0.093,-0.093 0.093,-0.187 0.186,-0.187 l 4.774,-2.714 c 0.374,-0.187 0.843,-0.187 1.31,0 l 4.774,2.714 c 0.281,0.187 0.374,0.562 0.187,0.843 C 0.187,-0.187 0.094,-0.093 0,0"
       style="fill:#242424;fill-opacity:1;fill-rule:nonzero;stroke:none"
       id="path291"
       inkscape:connector-curvature="0" />
  </g>
  <g
     id="g293"
     transform="matrix(8.9623411,0,0,-8.9623411,129.05606,488.37126)"
     inkscape:export-xdpi="96"
     inkscape:export-ydpi="96"
     style="fill:#242424;fill-opacity:1">
    <path
       d="m 0,0 c 0.187,-0.094 0.468,-0.094 0.655,0 l 4.867,2.808 c 0.187,0.094 0.374,0 0.468,-0.093 V 2.527 1.217 C 5.99,1.124 5.896,1.03 5.803,0.936 L 0.468,-2.153 c -0.187,-0.094 -0.375,0 -0.562,0.094 L -5.241,0.749 C -5.335,0.843 -5.429,0.936 -5.429,1.03 v 1.404 c 0,0.187 0.188,0.281 0.375,0.281 h 0.187 z"
       style="fill:#242424;fill-opacity:1;fill-rule:nonzero;stroke:none"
       id="path295"
       inkscape:connector-curvature="0" />
  </g>
  <g
     id="g297"
     transform="matrix(8.9623411,0,0,-8.9623411,129.05606,516.05055)"
     inkscape:export-xdpi="96"
     inkscape:export-ydpi="96"
     style="fill:#242424;fill-opacity:1">
    <path
       d="m 0,0 c 0.187,-0.094 0.468,-0.094 0.655,0 l 4.867,2.808 c 0.187,0.094 0.374,0 0.468,-0.094 V 2.527 1.216 C 5.99,1.123 5.896,1.03 5.803,0.936 L 0.468,-2.153 c -0.187,-0.094 -0.375,0 -0.562,0.093 L -5.241,0.749 C -5.335,0.842 -5.429,0.936 -5.429,1.03 v 1.403 c 0,0.188 0.188,0.281 0.375,0.281 h 0.187 z"
       style="fill:#242424;fill-opacity:1;fill-rule:nonzero;stroke:none"
       id="path299"
       inkscape:connector-curvature="0" />
  </g>
  <g
     id="g301"
     transform="matrix(8.9623411,0,0,-8.9623411,588.74607,443.91267)"
     inkscape:export-xdpi="96"
     inkscape:export-ydpi="96"
     style="fill:#242424;fill-opacity:1">
    <path
       d="m 0,0 -4.773,2.715 c -0.374,0.186 -0.842,0.186 -1.311,0 L -10.857,0 c -0.28,-0.187 -0.374,-0.562 -0.187,-0.843 0.094,-0.093 0.094,-0.187 0.187,-0.187 l 4.773,-2.714 c 0.375,-0.187 0.843,-0.187 1.311,0 L 0,-1.03 c 0.281,0.187 0.375,0.562 0.188,0.843 0,0 -0.094,0.094 -0.188,0.187"
       style="fill:#242424;fill-opacity:1;fill-rule:nonzero;stroke:none"
       id="path303"
       inkscape:connector-curvature="0" />
  </g>
  <g
     id="g305"
     transform="matrix(8.9623411,0,0,-8.9623411,537.58015,488.37126)"
     inkscape:export-xdpi="96"
     inkscape:export-ydpi="96"
     style="fill:#242424;fill-opacity:1">
    <path
       d="m 0,0 c 0.187,-0.094 0.468,-0.094 0.655,0 l 4.867,2.808 c 0.187,0.094 0.375,0 0.468,-0.093 V 2.527 1.217 C 5.99,1.124 5.897,1.03 5.803,0.936 L 0.468,-2.153 c -0.187,-0.094 -0.374,0 -0.562,0.094 L -5.335,0.843 C -5.428,0.936 -5.522,1.03 -5.522,1.124 v 1.403 c 0,0.188 0.187,0.281 0.374,0.281 h 0.187 z"
       style="fill:#242424;fill-opacity:1;fill-rule:nonzero;stroke:none"
       id="path307"
       inkscape:connector-curvature="0" />
  </g>
  <g
     id="g309"
     transform="matrix(8.9623411,0,0,-8.9623411,537.58015,516.05055)"
     inkscape:export-xdpi="96"
     inkscape:export-ydpi="96"
     style="fill:#242424;fill-opacity:1">
    <path
       d="m 0,0 c 0.187,-0.094 0.468,-0.094 0.655,0 l 4.867,2.808 c 0.187,0.094 0.375,0 0.468,-0.094 V 2.527 1.216 C 5.99,1.123 5.897,1.03 5.803,0.936 L 0.468,-2.153 c -0.187,-0.094 -0.374,0 -0.562,0.093 L -5.335,0.842 C -5.428,0.936 -5.522,1.03 -5.522,1.123 v 1.404 c 0,0.187 0.187,0.281 0.374,0.281 h 0.187 z"
       style="fill:#242424;fill-opacity:1;fill-rule:nonzero;stroke:none"
       id="path311"
       inkscape:connector-curvature="0" />
  </g>
  <g
     id="g557"
     transform="matrix(5.4373652,0,0,-5.4373652,410.07334,545.76449)"
     inkscape:export-xdpi="96"
     inkscape:export-ydpi="96"
     style="fill:#242424;fill-opacity:1">
    <path
       d="m 0,0 -30.045,17.316 c -0.655,0.374 -1.123,1.123 -1.123,1.965 v 44.928 c 0,0.655 0.468,1.123 1.123,1.123 0.187,0 0.374,-0.094 0.562,-0.188 L -6.084,51.573 2.059,34.538 V 1.124 C 2.059,0.375 1.497,-0.187 0.749,-0.281 0.468,-0.187 0.187,-0.187 0,0"
       style="fill:#242424;fill-opacity:1;fill-rule:nonzero;stroke:none"
       id="path559"
       inkscape:connector-curvature="0" />
  </g>
  <g
     id="g561"
     transform="matrix(5.4373652,0,0,-5.4373652,376.99226,265.34215)"
     inkscape:export-xdpi="96"
     inkscape:export-ydpi="96">
    <path
       d="m 0,0 -0.187,-11.232 c 0,-0.655 0.374,-1.217 0.842,-1.498 l 7.394,-4.305"
       style="fill:#d9dbdb;fill-opacity:1;fill-rule:nonzero;stroke:none"
       id="path563"
       inkscape:connector-curvature="0" />
  </g>
  <g
     id="g565"
     transform="matrix(5.4373652,0,0,-5.4373652,340.85827,324.37944)"
     inkscape:export-xdpi="96"
     inkscape:export-ydpi="96">
    <path
       d="m 0,0 -12.823,7.394 c -0.375,0.187 -0.561,0.562 -0.561,0.936 v 2.62 c 0,0.281 0.28,0.562 0.561,0.562 0.093,0 0.187,0 0.281,-0.093 L 0.281,4.025 C 0.656,3.837 0.843,3.463 0.843,3.089 V 0.468 c 0,-0.281 -0.281,-0.562 -0.562,-0.562 -0.094,0 -0.187,0 -0.281,0.094"
       style="fill:#03e39c;fill-opacity:1;fill-rule:nonzero;stroke:none"
       id="path567"
       inkscape:connector-curvature="0" />
  </g>
  <g
     id="g569"
     transform="matrix(5.4373652,0,0,-5.4373652,305.7437,352.36773)"
     inkscape:export-xdpi="96"
     inkscape:export-ydpi="96">
    <path
       d="M 0,0 -5.242,3.089 C -5.616,3.275 -5.803,3.65 -5.803,4.024 v 2.621 c 0,0.281 0.28,0.562 0.561,0.562 0.094,0 0.188,0 0.281,-0.093 L 0.28,4.024 C 0.655,3.837 0.842,3.462 0.842,3.089 V 0.468 c 0,-0.281 -0.281,-0.562 -0.562,-0.562 -0.093,0 -0.187,0 -0.28,0.094"
       style="fill:#03e39c;fill-opacity:1;fill-rule:nonzero;stroke:none"
       id="path571"
       inkscape:connector-curvature="0" />
  </g>
  <g
     id="g573"
     transform="matrix(5.4373652,0,0,-5.4373652,250.77807,275.01143)"
     inkscape:export-xdpi="96"
     inkscape:export-ydpi="96">
    <path
       d="m 0,0 -7.769,4.586 c -0.374,0.187 -0.562,0.561 -0.562,0.936 v 2.621 c 0,0.281 0.281,0.562 0.562,0.562 0.094,0 0.188,0 0.281,-0.094 L 0.281,4.024 C 0.655,3.837 0.843,3.462 0.843,3.089 V 0.468 c 0,-0.281 -0.281,-0.562 -0.562,-0.562 -0.094,0 -0.188,0 -0.281,0.094"
       style="fill:#03e39c;fill-opacity:1;fill-rule:nonzero;stroke:none"
       id="path575"
       inkscape:connector-curvature="0" />
  </g>
  <g
     id="g577"
     transform="matrix(5.4373652,0,0,-5.4373652,395.82412,403.77313)"
     inkscape:export-xdpi="96"
     inkscape:export-ydpi="96">
    <path
       d="m 0,0 -12.824,7.394 c -0.374,0.188 -0.561,0.562 -0.561,0.937 v 2.62 c 0,0.281 0.281,0.562 0.561,0.562 0.094,0 0.188,0 0.281,-0.094 L 0.281,4.025 C 0.655,3.838 0.842,3.463 0.842,3.089 v -2.62 c 0,-0.281 -0.187,-0.562 -0.561,-0.562 -0.094,0 -0.188,0 -0.281,0.093"
       style="fill:#03e39c;fill-opacity:1;fill-rule:nonzero;stroke:none"
       id="path579"
       inkscape:connector-curvature="0" />
  </g>
  <g
     id="g581"
     transform="matrix(5.4373652,0,0,-5.4373652,452.31067,481.12944)"
     inkscape:export-xdpi="96"
     inkscape:export-ydpi="96">
    <path
       d="m 0,0 -26.301,15.069 c -0.281,0.187 -0.375,0.468 -0.375,0.749 v 2.995 c 0,0.187 0.188,0.375 0.375,0.375 0.094,0 0.094,0 0.187,-0.094 L 0.281,4.025 C 0.562,3.838 0.656,3.65 0.656,3.276 V 0.281 C 0.656,0.094 0.469,-0.093 0.281,-0.187 0.188,-0.093 0.094,-0.093 0,0"
       style="fill:#03e39c;fill-opacity:1;fill-rule:nonzero;stroke:none"
       id="path583"
       inkscape:connector-curvature="0" />
  </g>
  <g
     id="g585"
     transform="matrix(5.4373652,0,0,-5.4373652,359.15787,460.48867)"
     inkscape:export-xdpi="96"
     inkscape:export-ydpi="96">
    <path
       d="M 0,0 C 1.45,0.682 3.251,-0.091 4.021,-1.728 4.792,-3.365 4.242,-5.245 2.792,-5.928 1.343,-6.61 -0.458,-5.837 -1.229,-4.2 -1.999,-2.564 -1.449,-0.683 0,0"
       style="fill:#d9dbdb;fill-opacity:1;fill-rule:nonzero;stroke:none"
       id="path587"
       inkscape:connector-curvature="0" />
  </g>
</svg>
