<?xml version="1.0" encoding="UTF-8" standalone="no"?>
<!-- Created with Inkscape (http://www.inkscape.org/) -->

<svg
   xmlns:dc="http://purl.org/dc/elements/1.1/"
   xmlns:cc="http://creativecommons.org/ns#"
   xmlns:rdf="http://www.w3.org/1999/02/22-rdf-syntax-ns#"
   xmlns:svg="http://www.w3.org/2000/svg"
   xmlns="http://www.w3.org/2000/svg"
   xmlns:sodipodi="http://sodipodi.sourceforge.net/DTD/sodipodi-0.dtd"
   xmlns:inkscape="http://www.inkscape.org/namespaces/inkscape"
   width="25.381308mm"
   height="25.380945mm"
   viewBox="0 0 25.381307 25.380945"
   version="1.1"
   id="svg10336"
   inkscape:version="0.92.3 (2405546, 2018-03-11)"
   sodipodi:docname="icon_nspcc_2.svg">
  <defs
     id="defs10330" />
  <sodipodi:namedview
     id="base"
     pagecolor="#ffffff"
     bordercolor="#666666"
     borderopacity="1.0"
     inkscape:pageopacity="0.0"
     inkscape:pageshadow="2"
     inkscape:zoom="2.8204955"
     inkscape:cx="118.31387"
     inkscape:cy="25.81182"
     inkscape:document-units="mm"
     inkscape:current-layer="layer1"
     showgrid="false"
     inkscape:window-width="3840"
     inkscape:window-height="2049"
     inkscape:window-x="0"
     inkscape:window-y="55"
     inkscape:window-maximized="1" />
  <metadata
     id="metadata10333">
    <rdf:RDF>
      <cc:Work
         rdf:about="">
        <dc:format>image/svg+xml</dc:format>
        <dc:type
           rdf:resource="http://purl.org/dc/dcmitype/StillImage" />
        <dc:title></dc:title>
      </cc:Work>
    </rdf:RDF>
  </metadata>
  <g
     inkscape:label="Layer 1"
     inkscape:groupmode="layer"
     id="layer1"
     transform="translate(-43.157431,5.7896615)">
    <g
       id="g9303"
       transform="matrix(0.35277777,0,0,-0.35277777,55.640946,-1.3408155)"
       style="fill:#03e39c;fill-opacity:1">
      <path
         d="m 0,0 c 12.676,0 22.95,-10.276 22.95,-22.951 0,-12.675 -10.274,-22.95 -22.95,-22.95 -12.676,0 -22.95,10.275 -22.95,22.95 C -22.95,-10.276 -12.676,0 0,0"
         style="fill:#03e39c;fill-opacity:1;fill-rule:nonzero;stroke:none"
         id="path9305"
         inkscape:connector-curvature="0" />
    </g>
    <g
       id="g9311"
       transform="matrix(0.35277777,0,0,-0.35277777,48.357671,5.3325055)">
      <path
         d="m 0,0 -5.147,-5.148 -2.75,2.75 -1.697,-1.696 3.598,-3.598 c 0.233,-0.234 0.541,-0.35 0.849,-0.35 0.306,0 0.614,0.116 0.846,0.35 l 5.995,5.997 z"
         style="fill:#1d3240;fill-opacity:1;fill-rule:nonzero;stroke:none"
         id="path9313"
         inkscape:connector-curvature="0" />
    </g>
    <g
       id="g9315"
       transform="matrix(0.35277777,0,0,-0.35277777,66.12469,5.3325055)">
      <path
         d="m 0,0 -5.147,-5.148 -2.75,2.75 -1.698,-1.696 3.599,-3.598 c 0.234,-0.234 0.541,-0.35 0.849,-0.35 0.306,0 0.613,0.116 0.845,0.35 l 5.996,5.997 z"
         style="fill:#1d3240;fill-opacity:1;fill-rule:nonzero;stroke:none"
         id="path9317"
         inkscape:connector-curvature="0" />
    </g>
    <g
       id="g9319"
       transform="matrix(0.35277777,0,0,-0.35277777,48.357671,-3.5510385)">
      <path
         d="m 0,0 -5.147,-5.148 -2.75,2.75 -1.697,-1.696 3.598,-3.597 c 0.233,-0.234 0.541,-0.351 0.849,-0.351 0.306,0 0.614,0.117 0.846,0.351 l 5.995,5.996 z"
         style="fill:#1d3240;fill-opacity:1;fill-rule:nonzero;stroke:none"
         id="path9321"
         inkscape:connector-curvature="0" />
    </g>
    <path
       inkscape:connector-curvature="0"
       id="path9325"
       style="fill:#242424;fill-opacity:1;fill-rule:nonzero;stroke:none;stroke-width:0.35277775"
       d="M 59.232083,8.7412575 56.270514,10.056766 V 6.7526485 l 2.961569,-1.31586 z m -3.384198,-2.726619 -0.921808,-0.409575 -1.843263,-0.819504 2.765071,-1.228725 2.765425,1.228725 -1.843617,0.819504 z m 2.961216,9.7694755 c 0,1.632654 -1.328208,2.961217 -2.961216,2.961217 -1.632654,0 -2.961217,-1.328563 -2.961217,-2.961217 0,-1.632304 1.328563,-2.961217 2.961217,-2.961217 1.633008,0 2.961216,1.328913 2.961216,2.961217 M 52.463689,8.7412575 v -3.304469 l 2.960862,1.31586 v 3.3041175 z m 0.422979,-10.72374 c 0,-1.632654 1.328563,-2.961569 2.961217,-2.961569 1.633008,0 2.961216,1.328915 2.961216,2.961569 0,1.63230402 -1.328208,2.96086502 -2.961216,2.96086502 -1.632654,0 -2.961217,-1.328561 -2.961217,-2.96086502 M 64.731535,12.822897 c 1.632656,0 2.960865,1.328913 2.960865,2.961217 0,1.632654 -1.328209,2.961217 -2.960865,2.961217 -1.633009,0 -2.961569,-1.328563 -2.961569,-2.961217 0,-1.632304 1.32856,-2.961217 2.961569,-2.961217 m -17.766594,5.922434 c -1.63336,0 -2.961568,-1.328563 -2.961568,-2.961217 0,-1.632304 1.328208,-2.961217 2.961568,-2.961217 1.632302,0 2.96051,1.328913 2.96051,2.961217 0,1.632654 -1.328208,2.961217 -2.96051,2.961217 m 0,-8.8832985 c -1.63336,0 -2.961568,-1.328915 -2.961568,-2.961569 0,-1.632304 1.328208,-2.960865 2.961568,-2.960865 1.632302,0 2.96051,1.328561 2.96051,2.960865 0,1.632654 -1.328208,2.961569 -2.96051,2.961569 m 0,-8.88364998 c -1.63336,0 -2.961568,-1.328561 -2.961568,-2.96086502 0,-1.632654 1.328208,-2.961569 2.961568,-2.961569 1.632302,0 2.96051,1.328915 2.96051,2.961569 0,1.63230402 -1.328208,2.96086502 -2.96051,2.96086502 M 64.731535,-4.9440515 c 1.632656,0 2.960865,1.328915 2.960865,2.961569 0,1.63230402 -1.328209,2.96086502 -2.960865,2.96086502 -1.633009,0 -2.961569,-1.328561 -2.961569,-2.96086502 0,-1.632654 1.32856,-2.961569 2.961569,-2.961569 m 0,8.88365 c 1.632656,0 2.960865,1.328561 2.960865,2.960865 0,1.632654 -1.328209,2.961569 -2.960865,2.961569 -1.633009,0 -2.961569,-1.328915 -2.961569,-2.961569 0,-1.632304 1.32856,-2.960865 2.961569,-2.960865 m -4.653492,5.076119 v -1.692275 h 0.871008 c 0.211667,1.900767 1.826332,3.3841985 3.782484,3.3841985 2.099381,0 3.807179,-1.7077985 3.807179,-3.8071775 0,-2.099029 -1.707798,-3.806825 -3.807179,-3.806825 -1.956152,0 -3.571521,1.483429 -3.782484,3.384196 h -0.871008 v -1.692275 c 0,-0.0388 -0.0064,-0.0769 -0.01622,-0.113946 -0.0032,-0.01164 -0.0092,-0.02257 -0.01341,-0.03351 -0.0095,-0.02434 -0.01905,-0.04763 -0.03245,-0.0695 -0.0071,-0.01236 -0.01587,-0.02294 -0.02469,-0.03422 -0.01447,-0.01905 -0.02963,-0.03704 -0.04692,-0.05397 -0.01093,-0.0099 -0.02151,-0.01939 -0.03387,-0.02858 -0.0088,-0.0067 -0.01553,-0.01516 -0.02469,-0.02117 -0.01199,-0.0071 -0.02434,-0.01093 -0.03598,-0.01728 -0.0081,-0.0042 -0.01482,-0.01058 -0.02257,-0.01447 l -0.609245,-0.270227 3.13972,-3.14007498 C 63.0093,1.5107215 63.833741,1.8243405 64.73156,1.8243405 c 2.099381,0 3.807179,-1.70744398 3.807179,-3.806825 0,-2.099733 -1.707798,-3.807177 -3.807179,-3.807177 -2.099027,0 -3.807177,1.707444 -3.807177,3.807177 0,0.897467 0.313973,1.72190802 0.835025,2.37313802 L 58.390733,3.7600325 56.270539,2.8184695 v -1.018823 c 1.901119,-0.21096 3.384902,-1.82633098 3.384902,-3.782131 0,-2.099733 -1.708856,-3.807177 -3.807531,-3.807177 -2.099027,0 -3.807177,1.707444 -3.807177,3.807177 0,1.95580002 1.483431,3.571171 3.383844,3.782131 v 1.018823 L 53.305793,3.7600325 49.93606,0.39065352 c 0.521758,-0.65123 0.835731,-1.47567102 0.835731,-2.37313802 0,-2.099733 -1.70815,-3.807177 -3.806825,-3.807177 -2.099733,0 -3.807531,1.707444 -3.807531,3.807177 0,2.09938102 1.707798,3.806825 3.807531,3.806825 0.897467,0 1.721557,-0.313619 2.372784,-0.83572898 l 3.140075,3.14007498 -0.608542,0.270227 c -0.0092,0.0039 -0.01553,0.01058 -0.02363,0.01516 -0.01199,0.006 -0.02434,0.0095 -0.03563,0.01693 -0.0088,0.006 -0.01622,0.01447 -0.02506,0.02117 -0.01236,0.0092 -0.02363,0.01834 -0.03387,0.02893 -0.01728,0.01622 -0.03281,0.03422 -0.04727,0.05362 -0.0081,0.0113 -0.01765,0.02188 -0.024,0.03422 -0.01341,0.02188 -0.02363,0.04515 -0.03246,0.06949 -0.0042,0.0113 -0.01024,0.02188 -0.01376,0.03387 -0.0095,0.03634 -0.01588,0.07444 -0.01588,0.113242 v 1.692275 h -0.870984 c -0.211666,-1.900767 -1.825977,-3.384196 -3.781777,-3.384196 -2.099733,0 -3.807531,1.707796 -3.807531,3.806825 0,2.099379 1.707798,3.8071775 3.807531,3.8071775 1.9558,0 3.570817,-1.4834315 3.781777,-3.3841985 h 0.871009 v 1.692275 c 0,0.167571 0.09842,0.318913 0.251531,0.386998 l 0.608542,0.270227 -3.140075,3.1397235 c -0.651227,-0.521752 -1.475317,-0.835725 -2.372784,-0.835725 -2.099733,0 -3.807531,1.707798 -3.807531,3.807179 0,2.099379 1.707798,3.807177 3.807531,3.807177 2.098675,0 3.806825,-1.707798 3.806825,-3.807177 0,-0.897467 -0.313973,-1.722263 -0.835731,-2.37349 l 3.369733,-3.369027 2.118784,0.941211 v 1.018823 c -1.900412,0.211312 -3.383844,1.825977 -3.383844,3.782483 0,2.099379 1.70815,3.807177 3.807177,3.807177 2.098675,0 3.807531,-1.707798 3.807531,-3.807177 0,-1.956506 -1.483783,-3.571171 -3.384901,-3.782483 V 10.9828 l 2.120193,-0.941211 3.368675,3.369027 c -0.521052,0.651227 -0.835025,1.476023 -0.835025,2.37349 0,2.099379 1.70815,3.807177 3.807177,3.807177 2.099381,0 3.80718,-1.707798 3.80718,-3.807177 0,-2.099381 -1.707799,-3.807179 -3.80718,-3.807179 -0.897819,0 -1.72226,0.313973 -2.373842,0.835731 l -3.13972,-3.1397235 0.609245,-0.270227 c 0.1524,-0.06809 0.250825,-0.219427 0.250825,-0.386998" />
    <g
       id="g9327"
       transform="matrix(0.35277777,0,0,-0.35277777,66.12469,-3.5510385)">
      <path
         d="m 0,0 -5.147,-5.148 -2.75,2.75 -1.698,-1.696 3.599,-3.597 c 0.234,-0.234 0.541,-0.351 0.849,-0.351 0.306,0 0.613,0.117 0.845,0.351 l 5.996,5.996 z"
         style="fill:#1d3240;fill-opacity:1;fill-rule:nonzero;stroke:none"
         id="path9329"
         inkscape:connector-curvature="0" />
    </g>
    <g
       id="g9331"
       transform="matrix(0.35277777,0,0,-0.35277777,57.241181,-3.5510385)">
      <path
         d="m 0,0 -5.149,-5.148 -2.748,2.75 -1.697,-1.696 3.598,-3.597 c 0.232,-0.234 0.54,-0.351 0.847,-0.351 0.308,0 0.615,0.117 0.848,0.351 l 5.995,5.996 z"
         style="fill:#1d3240;fill-opacity:1;fill-rule:nonzero;stroke:none"
         id="path9333"
         inkscape:connector-curvature="0" />
    </g>
    <g
       id="g9335"
       transform="matrix(0.35277777,0,0,-0.35277777,48.357671,14.216191)">
      <path
         d="m 0,0 -5.147,-5.147 -2.75,2.749 -1.697,-1.696 3.598,-3.596 c 0.233,-0.234 0.541,-0.352 0.849,-0.352 0.306,0 0.614,0.118 0.846,0.352 l 5.995,5.995 z"
         style="fill:#1d3240;fill-opacity:1;fill-rule:nonzero;stroke:none"
         id="path9337"
         inkscape:connector-curvature="0" />
    </g>
    <g
       id="g9339"
       transform="matrix(0.35277777,0,0,-0.35277777,66.12469,14.216191)">
      <path
         d="m 0,0 -5.147,-5.147 -2.75,2.749 -1.698,-1.696 3.599,-3.596 c 0.234,-0.234 0.541,-0.352 0.849,-0.352 0.306,0 0.613,0.118 0.845,0.352 l 5.996,5.995 z"
         style="fill:#1d3240;fill-opacity:1;fill-rule:nonzero;stroke:none"
         id="path9341"
         inkscape:connector-curvature="0" />
    </g>
    <g
       id="g9343"
       transform="matrix(0.35277777,0,0,-0.35277777,57.241181,14.216191)">
      <path
         d="m 0,0 -5.149,-5.147 -2.748,2.749 -1.697,-1.696 3.598,-3.596 c 0.232,-0.234 0.54,-0.352 0.847,-0.352 0.308,0 0.615,0.118 0.848,0.352 l 5.995,5.995 z"
         style="fill:#1d3240;fill-opacity:1;fill-rule:nonzero;stroke:none"
         id="path9345"
         inkscape:connector-curvature="0" />
    </g>
  </g>
</svg>
