<?xml version="1.0" encoding="UTF-8" standalone="no"?>
<!-- Created with Inkscape (http://www.inkscape.org/) -->

<svg
   xmlns:dc="http://purl.org/dc/elements/1.1/"
   xmlns:cc="http://creativecommons.org/ns#"
   xmlns:rdf="http://www.w3.org/1999/02/22-rdf-syntax-ns#"
   xmlns:svg="http://www.w3.org/2000/svg"
   xmlns="http://www.w3.org/2000/svg"
   xmlns:sodipodi="http://sodipodi.sourceforge.net/DTD/sodipodi-0.dtd"
   xmlns:inkscape="http://www.inkscape.org/namespaces/inkscape"
   width="26.82699mm"
   height="26.420231mm"
   viewBox="0 0 26.82699 26.420231"
   version="1.1"
   id="svg10336"
   inkscape:version="0.92.3 (2405546, 2018-03-11)"
   sodipodi:docname="icon_nspcc_4.svg">
  <defs
     id="defs10330" />
  <sodipodi:namedview
     id="base"
     pagecolor="#ffffff"
     bordercolor="#666666"
     borderopacity="1.0"
     inkscape:pageopacity="0.0"
     inkscape:pageshadow="2"
     inkscape:zoom="2.8204955"
     inkscape:cx="61.308226"
     inkscape:cy="132.78514"
     inkscape:document-units="mm"
     inkscape:current-layer="layer1"
     showgrid="false"
     inkscape:window-width="3840"
     inkscape:window-height="2049"
     inkscape:window-x="0"
     inkscape:window-y="55"
     inkscape:window-maximized="1" />
  <metadata
     id="metadata10333">
    <rdf:RDF>
      <cc:Work
         rdf:about="">
        <dc:format>image/svg+xml</dc:format>
        <dc:type
           rdf:resource="http://purl.org/dc/dcmitype/StillImage" />
        <dc:title></dc:title>
      </cc:Work>
    </rdf:RDF>
  </metadata>
  <g
     inkscape:label="Layer 1"
     inkscape:groupmode="layer"
     id="layer1"
     transform="translate(-29.675822,-21.474411)">
    <g
       id="g1475"
       transform="matrix(0.35277777,0,0,-0.35277777,46.805764,41.332287)">
      <path
         d="m 0,0 -20.03,11.512 c -0.562,0.375 -0.936,0.937 -0.936,1.685 v 23.399 c 0,0.562 0.467,0.937 0.936,0.937 0.187,0 0.374,0 0.468,-0.094 L 0.562,25.927 C 1.123,25.552 1.497,24.896 1.497,24.242 V 0.843 C 1.497,0.281 1.029,-0.094 0.562,-0.094 0.374,-0.187 0.187,-0.094 0,0"
         style="fill:#2b3840;fill-opacity:1;fill-rule:nonzero;stroke:none"
         id="path1477"
         inkscape:connector-curvature="0" />
    </g>
    <g
       id="g1479"
       transform="matrix(0.35277777,0,0,-0.35277777,43.965965,36.115233)">
      <path
         d="m 0,0 -3.556,2.059 c -0.281,0.187 -0.469,0.468 -0.469,0.842 v 4.212 c 0,0.281 0.188,0.468 0.469,0.468 0.093,0 0.186,0 0.281,-0.094 L 0.375,5.428 C 0.656,5.241 0.842,4.96 0.842,4.679 V 0.468 C 0.842,0.187 0.656,0 0.375,0 0.187,-0.094 0.094,0 0,0"
         style="fill:#d9dbdb;fill-opacity:1;fill-rule:nonzero;stroke:none"
         id="path1481"
         inkscape:connector-curvature="0" />
    </g>
    <g
       id="g1483"
       transform="matrix(0.35277777,0,0,-0.35277777,44.031952,30.502222)">
      <path
         d="m 0,0 -3.931,2.247 v 3.931 c 0,0.187 0.188,0.375 0.469,0.375 h 0.187 L -0.28,4.868 C 0,4.774 0.094,4.493 0.094,4.212 Z"
         style="fill:#2b3840;fill-opacity:1;fill-rule:nonzero;stroke:none"
         id="path1485"
         inkscape:connector-curvature="0" />
    </g>
    <g
       id="g1487"
       transform="matrix(0.35277777,0,0,-0.35277777,45.947244,31.624902)">
      <path
         d="m 0,0 -3.931,2.247 v 3.931 c 0,0.187 0.187,0.375 0.374,0.375 0.094,0 0.094,0 0.187,-0.094 L -0.375,4.774 C -0.094,4.681 0,4.4 0,4.119 Z"
         style="fill:#2b3840;fill-opacity:1;fill-rule:nonzero;stroke:none"
         id="path1489"
         inkscape:connector-curvature="0" />
    </g>
    <g
       id="g1491"
       transform="matrix(0.35277777,0,0,-0.35277777,42.116818,29.412351)">
      <path
         d="m 0,0 -3.931,2.246 v 3.931 c 0,0.188 0.187,0.375 0.375,0.375 0.093,0 0.093,0 0.187,-0.094 L -0.375,4.774 C -0.094,4.68 0,4.399 0,4.118 Z"
         style="fill:#2b3840;fill-opacity:1;fill-rule:nonzero;stroke:none"
         id="path1493"
         inkscape:connector-curvature="0" />
    </g>
    <g
       id="g1495"
       transform="matrix(0.35277777,0,0,-0.35277777,43.833991,27.761456)">
      <path
         d="M 0,0 -2.996,1.685 C -3.276,1.778 -3.37,2.059 -3.37,2.34 v 3.463 c 0,0.187 0.188,0.375 0.374,0.375 0.095,0 0.095,0 0.187,-0.094 L 0.187,4.399 C 0.468,4.306 0.561,4.025 0.561,3.744 V 0.281 C 0.561,0.094 0.374,-0.094 0.187,-0.094 0.093,0 0,0 0,0"
         style="fill:#03e39c;fill-opacity:1;fill-rule:nonzero;stroke:none"
         id="path1497"
         inkscape:connector-curvature="0" />
    </g>
    <g
       id="g1499"
       transform="matrix(0.35277777,0,0,-0.35277777,39.376396,30.799085)">
      <path
         d="m 0,0 -3.557,2.059 c -0.281,0.187 -0.375,0.374 -0.375,0.655 v 3.463 c 0,0.187 0.188,0.375 0.375,0.375 0.094,0 0.094,0 0.187,-0.094 L 0,4.493 Z"
         style="fill:#2b3840;fill-opacity:1;fill-rule:nonzero;stroke:none"
         id="path1501"
         inkscape:connector-curvature="0" />
    </g>
    <g
       id="g1503"
       transform="matrix(0.35277777,0,0,-0.35277777,39.376396,33.209473)">
      <path
         d="m 0,0 -3.557,2.059 c -0.281,0.187 -0.375,0.374 -0.375,0.655 v 3.463 c 0,0.187 0.188,0.375 0.375,0.375 0.094,0 0.187,0 0.187,-0.094 L 0,4.492 Z"
         style="fill:#2b3840;fill-opacity:1;fill-rule:nonzero;stroke:none"
         id="path1505"
         inkscape:connector-curvature="0" />
    </g>
    <g
       id="g1507"
       transform="matrix(0.35277777,0,0,-0.35277777,39.376396,35.521119)">
      <path
         d="m 0,0 -3.557,2.06 c -0.281,0.187 -0.375,0.374 -0.375,0.655 v 3.463 c 0,0.187 0.188,0.375 0.375,0.375 0.094,0 0.094,0 0.187,-0.094 L 0,4.493 Z"
         style="fill:#2b3840;fill-opacity:1;fill-rule:nonzero;stroke:none"
         id="path1509"
         inkscape:connector-curvature="0" />
    </g>
    <g
       id="g1511"
       transform="matrix(0.35277777,0,0,-0.35277777,45.748992,28.917297)"
       style="fill:#03e39c;fill-opacity:1">
      <path
         d="M 0,0 -2.995,1.685 C -3.276,1.779 -3.369,2.06 -3.369,2.341 v 3.462 c 0,0.188 0.187,0.375 0.374,0.375 0.094,0 0.094,0 0.187,-0.094 L 0.187,4.4 C 0.468,4.306 0.562,4.025 0.562,3.744 V 0.281 C 0.562,0.094 0.375,-0.093 0.187,-0.093 0.094,0 0.094,0 0,0"
         style="fill:#03e39c;fill-opacity:1;fill-rule:nonzero;stroke:none"
         id="path1513"
         inkscape:connector-curvature="0" />
    </g>
    <g
       id="g1515"
       transform="matrix(0.35277777,0,0,-0.35277777,41.918698,26.704674)">
      <path
         d="M 0,0 -2.901,1.684 C -3.182,1.778 -3.275,2.059 -3.275,2.34 v 3.463 c 0,0.187 0.187,0.374 0.374,0.374 0.093,0 0.093,0 0.187,-0.093 L 0.281,4.399 C 0.562,4.305 0.656,4.024 0.656,3.743 V 0.281 C 0.656,0.093 0.468,-0.094 0.281,-0.094 0.187,-0.094 0.094,0 0,0"
         style="fill:#03e39c;fill-opacity:1;fill-rule:nonzero;stroke:none"
         id="path1517"
         inkscape:connector-curvature="0" />
    </g>
    <g
       id="g1519"
       transform="matrix(0.35277777,0,0,-0.35277777,43.866905,25.384191)">
      <path
         d="M 0,0 -2.995,1.685 C -3.275,1.872 -3.37,2.06 -3.37,2.341 v 3.462 c 0,0.188 0.187,0.375 0.375,0.375 0.093,0 0.093,0 0.187,-0.094 L 0.187,4.4 C 0.468,4.212 0.562,4.025 0.562,3.744 V 0.281 C 0.562,0.094 0.375,-0.093 0.187,-0.093 0.094,-0.093 0,-0.093 0,0"
         style="fill:#d9dbdb;fill-opacity:1;fill-rule:nonzero;stroke:none"
         id="path1521"
         inkscape:connector-curvature="0" />
    </g>
    <g
       id="g1523"
       transform="matrix(0.35277777,0,0,-0.35277777,36.899738,29.643596)">
      <path
         d="m 0,0 -2.995,1.685 c -0.28,0.187 -0.374,0.374 -0.374,0.655 v 3.463 c 0,0.187 0.187,0.375 0.374,0.375 0.094,0 0.187,0 0.187,-0.094 L 0.187,4.4 C 0.468,4.212 0.562,4.025 0.562,3.744 V 0.281 C 0.562,0.094 0.375,-0.093 0.187,-0.093 0.187,0 0.094,0 0,0"
         style="fill:#03e39c;fill-opacity:1;fill-rule:nonzero;stroke:none"
         id="path1525"
         inkscape:connector-curvature="0" />
    </g>
    <g
       id="g1527"
       transform="matrix(0.35277777,0,0,-0.35277777,34.819398,30.601245)">
      <path
         d="M 0,0 -2.994,1.685 C -3.275,1.872 -3.369,2.06 -3.369,2.341 v 3.462 c 0,0.188 0.188,0.375 0.375,0.375 0.093,0 0.093,0 0.186,-0.094 L 0.188,4.4 C 0.469,4.213 0.562,4.025 0.562,3.744 V 0.281 C 0.562,0.094 0.375,-0.093 0.188,-0.093 0.094,-0.093 0,-0.093 0,0"
         style="fill:#d9dbdb;fill-opacity:1;fill-rule:nonzero;stroke:none"
         id="path1529"
         inkscape:connector-curvature="0" />
    </g>
    <g
       id="g1531"
       transform="matrix(0.35277777,0,0,-0.35277777,36.899738,32.053985)">
      <path
         d="M 0,0 -2.901,1.685 C -3.182,1.778 -3.275,2.059 -3.275,2.34 v 3.369 c 0,0.188 0.187,0.375 0.374,0.375 0.093,0 0.093,0 0.187,-0.094 L 0.187,4.306 C 0.468,4.212 0.562,3.931 0.562,3.65 V 0.187 C 0.562,0 0.375,-0.187 0.187,-0.187 0.094,0 0.094,0 0,0"
         style="fill:#03e39c;fill-opacity:1;fill-rule:nonzero;stroke:none"
         id="path1533"
         inkscape:connector-curvature="0" />
    </g>
    <g
       id="g1535"
       transform="matrix(0.35277777,0,0,-0.35277777,36.899738,34.563471)">
      <path
         d="m 0,0 -2.995,1.685 c -0.28,0.093 -0.374,0.374 -0.374,0.655 v 3.369 c 0,0.188 0.187,0.375 0.374,0.375 0.094,0 0.094,0 0.187,-0.094 L 0.094,4.306 C 0.375,4.212 0.468,3.931 0.468,3.65 V 0.375 C 0.468,0.187 0.281,0 0.094,0 c 0,-0.094 0,0 -0.094,0"
         style="fill:#03e39c;fill-opacity:1;fill-rule:nonzero;stroke:none"
         id="path1537"
         inkscape:connector-curvature="0" />
    </g>
    <g
       id="g1539"
       transform="matrix(0.35277777,0,0,-0.35277777,48.522619,38.492848)">
      <path
         d="M 0,0 -3.37,1.966 V 6.552 L 0.188,4.493 C 0.468,4.306 0.562,4.119 0.562,3.838 V 0.375 C 0.562,0.188 0.375,0 0.188,0 0.094,-0.093 0,-0.093 0,0"
         style="fill:#2b3840;fill-opacity:1;fill-rule:nonzero;stroke:none"
         id="path1541"
         inkscape:connector-curvature="0" />
    </g>
    <g
       id="g1543"
       transform="matrix(0.35277777,0,0,-0.35277777,48.522619,36.082494)">
      <path
         d="M 0,0 -3.37,1.872 V 6.459 L 0.188,4.4 C 0.468,4.212 0.562,4.025 0.562,3.651 V 0.188 C 0.562,0 0.375,-0.187 0.094,-0.187 0.094,-0.093 0,0 0,0"
         style="fill:#2b3840;fill-opacity:1;fill-rule:nonzero;stroke:none"
         id="path1545"
         inkscape:connector-curvature="0" />
    </g>
    <g
       id="g1547"
       transform="matrix(0.35277777,0,0,-0.35277777,48.522619,40.804179)">
      <path
         d="M 0,0 -3.37,1.966 V 6.552 L 0.188,4.493 C 0.468,4.306 0.562,4.119 0.562,3.838 V 0.281 C 0.562,0.094 0.375,-0.093 0.188,-0.093 0.094,-0.093 0,-0.093 0,0"
         style="fill:#2b3840;fill-opacity:1;fill-rule:nonzero;stroke:none"
         id="path1549"
         inkscape:connector-curvature="0" />
    </g>
    <g
       id="g1551"
       transform="matrix(0.35277777,0,0,-0.35277777,50.801052,39.780559)">
      <path
         d="M 0,0 -2.995,1.685 C -3.276,1.872 -3.369,2.059 -3.369,2.34 v 3.463 c 0,0.187 0.187,0.375 0.374,0.375 0.094,0 0.094,0 0.186,-0.094 L 0.187,4.399 C 0.468,4.212 0.562,4.025 0.562,3.744 V 0.281 c 0,-0.187 -0.188,-0.374 -0.469,-0.374 0.094,0 0,0 -0.093,0.093"
         style="fill:#03e39c;fill-opacity:1;fill-rule:nonzero;stroke:none"
         id="path1553"
         inkscape:connector-curvature="0" />
    </g>
    <g
       id="g1555"
       transform="matrix(0.35277777,0,0,-0.35277777,43.866905,41.233262)">
      <path
         d="M 0,0 -2.995,1.684 C -3.275,1.872 -3.37,2.059 -3.37,2.34 V 6.458 L 0.562,4.212 V 0.281 C 0.562,0.093 0.375,-0.094 0.187,-0.094 0.094,-0.094 0,-0.094 0,0"
         style="fill:#2b3840;fill-opacity:1;fill-rule:nonzero;stroke:none"
         id="path1557"
         inkscape:connector-curvature="0" />
    </g>
    <g
       id="g1559"
       transform="matrix(0.35277777,0,0,-0.35277777,41.786751,40.044613)">
      <path
         d="M 0,0 -2.995,1.685 C -3.276,1.778 -3.37,2.059 -3.37,2.34 V 6.459 L 0.561,4.212 V 0.281 C 0.561,0.094 0.374,-0.094 0.187,-0.094 0.093,-0.094 0,-0.094 0,0"
         style="fill:#2b3840;fill-opacity:1;fill-rule:nonzero;stroke:none"
         id="path1561"
         inkscape:connector-curvature="0" />
    </g>
    <g
       id="g1563"
       transform="matrix(0.35277777,0,0,-0.35277777,45.947244,42.454967)">
      <path
         d="M 0,0 -2.996,1.685 C -3.276,1.872 -3.37,2.059 -3.37,2.34 V 6.458 L 0.562,4.212 V 0.281 c 0,-0.187 -0.188,-0.375 -0.375,-0.375 0,0 -0.093,0 -0.187,0.094"
         style="fill:#2b3840;fill-opacity:1;fill-rule:nonzero;stroke:none"
         id="path1565"
         inkscape:connector-curvature="0" />
    </g>
    <g
       id="g1567"
       transform="matrix(0.35277777,0,0,-0.35277777,43.866905,43.775836)">
      <path
         d="M 0,0 -2.995,1.685 C -3.275,1.872 -3.37,2.059 -3.37,2.34 v 3.463 c 0,0.187 0.187,0.375 0.375,0.375 0.093,0 0.093,0 0.187,-0.094 L 0.187,4.399 C 0.468,4.212 0.562,4.025 0.562,3.744 V 0.281 C 0.562,0.094 0.375,-0.094 0.187,-0.094 0.094,-0.094 0,-0.094 0,0"
         style="fill:#03e39c;fill-opacity:1;fill-rule:nonzero;stroke:none"
         id="path1569"
         inkscape:connector-curvature="0" />
    </g>
    <g
       id="g1571"
       transform="matrix(0.35277777,0,0,-0.35277777,43.866905,46.285322)">
      <path
         d="M 0,0 -2.995,1.685 C -3.275,1.872 -3.37,2.059 -3.37,2.34 v 3.463 c 0,0.187 0.187,0.375 0.375,0.375 0.093,0 0.093,0 0.187,-0.094 L 0.187,4.399 C 0.468,4.212 0.562,4.025 0.562,3.744 V 0.281 C 0.562,0.094 0.375,-0.094 0.187,-0.094 0.094,-0.094 0,-0.094 0,0"
         style="fill:#d9dbdb;fill-opacity:1;fill-rule:nonzero;stroke:none"
         id="path1573"
         inkscape:connector-curvature="0" />
    </g>
    <g
       id="g1575"
       transform="matrix(0.35277777,0,0,-0.35277777,41.786751,42.619996)">
      <path
         d="M 0,0 -2.995,1.684 C -3.276,1.872 -3.37,2.153 -3.37,2.433 v 3.463 c 0,0.188 0.188,0.375 0.375,0.375 0.094,0 0.094,0 0.187,-0.094 L 0.187,4.493 C 0.468,4.399 0.561,4.118 0.561,3.837 V 0.374 C 0.561,0.187 0.374,0 0.187,0 0.093,-0.094 0,-0.094 0,0"
         style="fill:#03e39c;fill-opacity:1;fill-rule:nonzero;stroke:none"
         id="path1577"
         inkscape:connector-curvature="0" />
    </g>
    <g
       id="g1579"
       transform="matrix(0.35277777,0,0,-0.35277777,45.947244,44.997613)">
      <path
         d="M 0,0 -2.996,1.685 C -3.276,1.872 -3.37,2.059 -3.37,2.34 v 3.463 c 0,0.188 0.187,0.375 0.374,0.375 0.094,0 0.094,0 0.188,-0.094 L 0.187,4.4 C 0.468,4.212 0.562,4.025 0.562,3.744 V 0.281 C 0.562,0.094 0.374,-0.093 0.187,-0.093 0.187,0 0.094,0 0,0"
         style="fill:#03e39c;fill-opacity:1;fill-rule:nonzero;stroke:none"
         id="path1581"
         inkscape:connector-curvature="0" />
    </g>
    <g
       id="g1583"
       transform="matrix(0.35277777,0,0,-0.35277777,50.801052,37.138853)">
      <path
         d="M 0,0 -2.995,1.684 C -3.276,1.872 -3.369,2.059 -3.369,2.34 v 3.463 c 0,0.187 0.187,0.374 0.374,0.374 0.094,0 0.094,0 0.186,-0.093 L 0.187,4.399 C 0.468,4.212 0.562,4.025 0.562,3.744 V 0.281 c 0,-0.188 -0.188,-0.375 -0.375,-0.375 0,0 -0.094,0 -0.187,0.094"
         style="fill:#03e39c;fill-opacity:1;fill-rule:nonzero;stroke:none"
         id="path1585"
         inkscape:connector-curvature="0" />
    </g>
    <g
       id="g1587"
       transform="matrix(0.35277777,0,0,-0.35277777,52.914252,41.068233)">
      <path
         d="M 0,0 -2.996,1.685 C -3.276,1.872 -3.37,2.059 -3.37,2.34 v 3.463 c 0,0.187 0.187,0.375 0.374,0.375 0.094,0 0.094,0 0.188,-0.094 L 0.187,4.399 C 0.468,4.212 0.562,4.025 0.562,3.744 V 0.281 C 0.562,0.094 0.375,-0.094 0.187,-0.094 0.094,0 0.094,0 0,0"
         style="fill:#d9dbdb;fill-opacity:1;fill-rule:nonzero;stroke:none"
         id="path1589"
         inkscape:connector-curvature="0" />
    </g>
    <g
       id="g1591"
       transform="matrix(0.35277777,0,0,-0.35277777,50.801052,41.926822)">
      <path
         d="M 0,0 -2.995,1.685 C -3.276,1.872 -3.369,2.059 -3.369,2.34 v 3.463 c 0,0.188 0.187,0.375 0.374,0.375 0.094,0 0.186,0 0.186,-0.094 L 0.187,4.4 C 0.468,4.212 0.562,4.025 0.562,3.744 V 0.281 C 0.562,0.094 0.374,-0.093 0.187,-0.187 0.187,-0.093 0.093,-0.093 0,0"
         style="fill:#03e39c;fill-opacity:1;fill-rule:nonzero;stroke:none"
         id="path1593"
         inkscape:connector-curvature="0" />
    </g>
  </g>
</svg>
