<?xml version="1.0" encoding="UTF-8" standalone="no"?>
<!-- Created with Inkscape (http://www.inkscape.org/) -->

<svg
   xmlns:dc="http://purl.org/dc/elements/1.1/"
   xmlns:cc="http://creativecommons.org/ns#"
   xmlns:rdf="http://www.w3.org/1999/02/22-rdf-syntax-ns#"
   xmlns:svg="http://www.w3.org/2000/svg"
   xmlns="http://www.w3.org/2000/svg"
   xmlns:sodipodi="http://sodipodi.sourceforge.net/DTD/sodipodi-0.dtd"
   xmlns:inkscape="http://www.inkscape.org/namespaces/inkscape"
   width="26.82699mm"
   height="26.420231mm"
   viewBox="0 0 26.82699 26.420231"
   version="1.1"
   id="svg10336"
   inkscape:version="0.92.3 (2405546, 2018-03-11)"
   sodipodi:docname="icon_nspcc_1.svg">
  <defs
     id="defs10330" />
  <sodipodi:namedview
     id="base"
     pagecolor="#ffffff"
     bordercolor="#666666"
     borderopacity="1.0"
     inkscape:pageopacity="0.0"
     inkscape:pageshadow="2"
     inkscape:zoom="2.8204955"
     inkscape:cx="169.26798"
     inkscape:cy="132.78514"
     inkscape:document-units="mm"
     inkscape:current-layer="layer1"
     showgrid="false"
     inkscape:window-width="3840"
     inkscape:window-height="2049"
     inkscape:window-x="0"
     inkscape:window-y="55"
     inkscape:window-maximized="1" />
  <metadata
     id="metadata10333">
    <rdf:RDF>
      <cc:Work
         rdf:about="">
        <dc:format>image/svg+xml</dc:format>
        <dc:type
           rdf:resource="http://purl.org/dc/dcmitype/StillImage" />
        <dc:title></dc:title>
      </cc:Work>
    </rdf:RDF>
  </metadata>
  <g
     inkscape:label="Layer 1"
     inkscape:groupmode="layer"
     id="layer1"
     transform="translate(-29.675822,-21.474411)">
    <g
       id="g9299"
       transform="matrix(0.35277777,0,0,-0.35277777,43.089392,24.031161)"
       style="fill:#03e39c;fill-opacity:1">
      <path
         d="m 0,0 c 12.676,0 22.95,-10.276 22.95,-22.951 0,-12.675 -10.274,-22.95 -22.95,-22.95 -12.676,0 -22.95,10.275 -22.95,22.95 C -22.95,-10.276 -12.676,0 0,0"
         style="fill:#03e39c;fill-opacity:1;fill-rule:nonzero;stroke:none"
         id="path9301"
         inkscape:connector-curvature="0" />
    </g>
    <path
       inkscape:connector-curvature="0"
       id="path9309"
       style="fill:#242424;fill-opacity:1;fill-rule:nonzero;stroke:none;stroke-width:0.35277775"
       d="m 43.718822,47.042331 0.10442,-0.26035 c 0.26811,-0.67134 0.8516,-1.15641 1.56069,-1.29823 l 2.47755,-0.4953 c 0.21555,0.69321 0.8562,1.20157 1.61996,1.20157 0.76341,0 1.40406,-0.50836 1.61996,-1.20157 l 2.47826,0.4953 c 0.70838,0.14182 1.29187,0.62689 1.55998,1.29823 l 0.10407,0.26035 z m -0.62936,-0.6985 c -0.39617,-0.87454 -1.17898,-1.50566 -2.1269,-1.6951 l -2.56046,-0.51259 v -0.11218 c 0.67451,-0.39158 1.20156,-1.00753 1.48096,-1.74484 1.03435,0.32667 2.10891,0.50165 3.2064,0.50165 0.25118,0 0.50236,-0.0145 0.75283,-0.0321 -0.0452,0.0349 -0.0889,0.072 -0.13688,0.10372 l -0.375,0.25012 0.27058,0.36054 c 0.1397,0.18662 0.63147,0.81562 1.22026,1.29434 -0.76906,0.2667 -1.39207,0.83679 -1.73179,1.58644 m -12.1546,0.6985 0.10442,-0.26035 c 0.26775,-0.67134 0.85195,-1.15641 1.55998,-1.29822 l 2.47826,-0.4953 c 0.21555,0.69321 0.85655,1.20156 1.61996,1.20156 0.76376,0 1.4037,-0.50835 1.6196,-1.20156 l 2.47827,0.4953 c 0.70908,0.14181 1.29222,0.62688 1.56033,1.29822 l 0.10443,0.26035 z m 4.91031,-2.66841 c 0.27305,0.0702 0.55739,0.11148 0.85231,0.11148 0.29492,0 0.57891,-0.0413 0.85231,-0.11148 v 0.11148 c 0,0.4699 -0.38241,0.85231 -0.85231,0.85231 -0.4699,0 -0.85231,-0.38241 -0.85231,-0.85231 z m -1.70462,-3.29742 v -1.72437 c 0.94897,-0.0882 1.83656,-0.46779 2.55693,-1.09644 0.72037,0.62865 1.60761,1.00824 2.55658,1.09644 v 1.72437 c 0,1.41005 -1.14618,2.55694 -2.55658,2.55694 -1.41005,0 -2.55693,-1.14689 -2.55693,-2.55694 m -1.27812,-0.85231 c 0,-0.31397 0.17216,-0.58596 0.4258,-0.73342 v 1.4672 c -0.25364,-0.14782 -0.4258,-0.41981 -0.4258,-0.73378 m 3.83505,-5.96582 c 2.1142,0 3.8354,1.72085 3.8354,3.8354 v 0.66322 c -0.25224,-0.14676 -0.54046,-0.23707 -0.85266,-0.23707 -0.98496,0 -1.91135,-0.38382 -2.6088,-1.08091 l -0.37394,-0.37394 -0.3743,0.37394 c -0.69709,0.69709 -1.62348,1.08091 -2.60879,1.08091 -0.31186,0 -0.60043,0.0903 -0.85196,0.23707 v -0.66322 c 0,-2.11455 1.7205,-3.8354 3.83505,-3.8354 m -0.20602,-9.37154 c 0.29421,0.35736 1.04916,1.13806 2.42182,1.74448 -0.72531,1.45415 -1.27917,3.169 -1.3522,5.06977 h -4.26156 c 0.11536,-2.69381 1.32292,-5.10963 3.19194,-6.81425 m 16.38829,6.81496 h -0.84138 v 0.85195 h 0.83397 c -0.0293,0.68933 -0.12206,1.36949 -0.29316,2.0313 -0.82656,-0.73096 -1.90994,-1.17899 -3.09774,-1.17899 -0.32526,0 -0.64241,0.0335 -0.94897,0.0967 0.0395,-0.31679 0.0656,-0.63288 0.0776,-0.94897 h 2.57563 v -0.85195 h -2.56787 c -0.073,-1.90148 -0.62724,-3.61597 -1.3522,-5.07048 1.37231,-0.60642 2.12761,-1.38642 2.42182,-1.74413 1.86867,1.70427 3.07658,4.12009 3.19229,6.81461 m 0.43674,7.0552 c -0.25188,-0.14676 -0.54011,-0.23707 -0.85231,-0.23707 -0.98531,0 -1.91171,-0.38382 -2.60844,-1.08091 l -0.3743,-0.37394 -0.3743,0.37394 c -0.69708,0.69709 -1.62348,1.08091 -2.60843,1.08091 -0.31221,0 -0.60043,0.0903 -0.85267,0.23707 v -0.66322 c 0,-2.11455 1.72085,-3.8354 3.8354,-3.8354 2.11455,0 3.83505,1.72085 3.83505,3.8354 z m -0.42616,2.20098 v -1.4672 c 0.25365,0.14746 0.42616,0.41945 0.42616,0.73342 0,0.31397 -0.17251,0.58596 -0.42616,0.73378 m -4.2612,3.41595 c 0.2727,0.0702 0.55704,0.11147 0.85231,0.11147 0.29492,0 0.57926,-0.0413 0.85231,-0.11147 v 0.11147 c 0,0.4699 -0.38241,0.85231 -0.85231,0.85231 -0.4699,0 -0.85231,-0.38241 -0.85231,-0.85231 z m -5.11351,-6.68726 c 0.44309,0.0159 0.87559,0.0564 1.29257,0.12206 -0.006,0.0949 -0.0145,0.18874 -0.0145,0.28505 v 2.13042 0.59443 c 0,0.3489 -0.0773,0.68474 -0.21484,0.99272 -0.35207,0.0536 -0.70661,0.0931 -1.06327,0.1076 z m -2.13078,2.53753 v -2.13042 c 0,-0.0963 -0.009,-0.19015 -0.0141,-0.28505 0.41663,-0.0656 0.84914,-0.10618 1.29258,-0.12206 v 4.22734 c -0.67734,-0.03 -1.35079,-0.12912 -2.00731,-0.29563 0.43921,-0.30939 0.72884,-0.81774 0.72884,-1.39418 m -1.27811,0.73378 v -1.4672 c 0.25329,0.14746 0.42615,0.41945 0.42615,0.73342 0,0.31397 -0.17286,0.58596 -0.42615,0.73378 m -1.56457,-7.17233 c -0.067,-0.41028 -0.10408,-0.82197 -0.12171,-1.2319 h 4.24286 v 4.27179 c -0.48578,0.0159 -0.9645,0.0603 -1.42311,0.13194 -0.35772,-1.42804 -1.36702,-2.59997 -2.69804,-3.17183 m 4.12115,-6.35987 v 4.27602 h -4.24993 c 0.0762,-1.77342 0.61666,-3.38879 1.31586,-4.7625 0.80751,0.26246 1.77941,0.44803 2.93406,0.48648 m -3.34822,-1.54517 c -1.27071,-0.54681 -1.93922,-1.25448 -2.17029,-1.53776 1.3649,-1.04457 3.01061,-1.73813 4.80272,-1.94698 -0.71544,0.73413 -1.74696,1.93146 -2.63243,3.48474 m 3.34822,-2.98767 v 3.68159 c -0.98461,-0.0349 -1.81999,-0.18345 -2.51849,-0.39476 0.86784,-1.48414 1.8662,-2.62114 2.51849,-3.28683 m 1.56774,-0.49777 c 1.79246,0.20955 3.43817,0.90276 4.80272,1.94698 -0.23072,0.28398 -0.89924,0.99165 -2.16994,1.53811 -0.88582,-1.55293 -1.9177,-2.75026 -2.63278,-3.48509 m -0.71543,4.17936 v -3.68159 c 0.65158,0.66569 1.65064,1.80304 2.51812,3.28683 -0.69814,0.21096 -1.53387,0.35983 -2.51812,0.39476 m 0,5.12727 v -4.27602 c 1.15429,-0.0384 2.12619,-0.22402 2.9337,-0.48719 0.69991,1.37442 1.24001,2.98944 1.31586,4.7625 h -4.24956 z m 2.55658,9.25618 c -0.25365,-0.14782 -0.42616,-0.41981 -0.42616,-0.73378 0,-0.31397 0.17251,-0.58596 0.42616,-0.73342 z m 3.40924,2.67547 c -1.41041,0 -2.55658,-1.14689 -2.55658,-2.55694 v -1.72437 c 0.94862,-0.0882 1.83621,-0.46779 2.55658,-1.09644 0.72002,0.62865 1.60761,1.00824 2.55693,1.09644 v 1.72437 c 0,1.41005 -1.14688,2.55694 -2.55693,2.55694 m -4.54272,-6.67562 c -0.45896,-0.0716 -0.93733,-0.11571 -1.4231,-0.13194 v -4.27214 h 4.24215 c -0.0173,0.40993 -0.054,0.82162 -0.12171,1.2319 -1.33033,0.57186 -2.33962,1.74379 -2.69734,3.17218 m -11.33686,-2.3749 c -0.17075,-0.66146 -0.26741,-1.34091 -0.29669,-2.02918 h 4.26332 c 0.0123,0.31609 0.0381,0.63218 0.078,0.94898 -0.30656,-0.0632 -0.62371,-0.0967 -0.94897,-0.0967 -1.18675,0 -2.26871,0.44697 -3.09562,1.17686 m 12.44846,9.89895 c -0.34043,-0.0219 -0.98566,-0.58703 -1.506,-1.20298 0.49212,-0.43815 0.83502,-1.01282 0.99624,-1.64641 0.18803,0.12876 0.40428,0.21943 0.63606,0.26388 0.22472,0.90664 0.81209,1.6704 1.6002,2.12795 v 0.11254 z m 8.36789,-1.20298 c -0.5207,0.6156 -1.16522,1.18075 -1.506,1.20227 l -1.7265,-0.34502 v -0.11218 c 0.78846,-0.45791 1.37548,-1.22132 1.60091,-2.12796 0.23142,-0.0448 0.44732,-0.13511 0.63535,-0.26387 0.16122,0.63394 0.50447,1.20826 0.99624,1.64676 m 1.51271,3.18665 c -0.3242,-0.81175 -0.9786,-1.42699 -1.78964,-1.70815 0.58914,-0.47908 1.08091,-1.10773 1.22061,-1.29435 l 0.27023,-0.36054 -0.37465,-0.25011 c -0.68156,-0.45403 -1.08867,-1.21462 -1.08867,-2.03377 v -0.59443 -2.13042 c 0,-1.0407 -0.34467,-1.99955 -0.92075,-2.77778 0.32279,-1.0287 0.49459,-2.09832 0.49459,-3.18805 0,-5.87445 -4.77908,-10.65353 -10.65318,-10.65353 -5.87445,0 -10.65318,4.77908 -10.65318,10.65353 0,1.08973 0.16933,2.16076 0.49212,3.19017 -0.57432,0.77823 -0.91828,1.73637 -0.91828,2.77566 v 2.13042 c 0,0.82974 0.59584,1.52012 1.38219,1.67217 0.22471,0.90664 0.81209,1.6704 1.6009,2.12795 v 0.11254 l -2.56081,0.51188 c -0.99272,0.19826 -1.80905,0.87736 -2.18511,1.81681 l -0.5715,1.4291 h 12.78432 1.25871 12.78396 z" />
    <g
       style="fill:#03e39c;fill-opacity:1"
       transform="matrix(0.35277777,0,0,-0.35277777,43.089392,24.031161)"
       id="g10350">
      <path
         inkscape:connector-curvature="0"
         id="path10348"
         style="fill:#03e39c;fill-opacity:1;fill-rule:nonzero;stroke:none"
         d="m 0,0 c 12.676,0 22.95,-10.276 22.95,-22.951 0,-12.675 -10.274,-22.95 -22.95,-22.95 -12.676,0 -22.95,10.275 -22.95,22.95 C -22.95,-10.276 -12.676,0 0,0" />
    </g>
    <path
       d="m 43.718822,47.042331 0.10442,-0.26035 c 0.26811,-0.67134 0.8516,-1.15641 1.56069,-1.29823 l 2.47755,-0.4953 c 0.21555,0.69321 0.8562,1.20157 1.61996,1.20157 0.76341,0 1.40406,-0.50836 1.61996,-1.20157 l 2.47826,0.4953 c 0.70838,0.14182 1.29187,0.62689 1.55998,1.29823 l 0.10407,0.26035 z m -0.62936,-0.6985 c -0.39617,-0.87454 -1.17898,-1.50566 -2.1269,-1.6951 l -2.56046,-0.51259 v -0.11218 c 0.67451,-0.39158 1.20156,-1.00753 1.48096,-1.74484 1.03435,0.32667 2.10891,0.50165 3.2064,0.50165 0.25118,0 0.50236,-0.0145 0.75283,-0.0321 -0.0452,0.0349 -0.0889,0.072 -0.13688,0.10372 l -0.375,0.25012 0.27058,0.36054 c 0.1397,0.18662 0.63147,0.81562 1.22026,1.29434 -0.76906,0.2667 -1.39207,0.83679 -1.73179,1.58644 m -12.1546,0.6985 0.10442,-0.26035 c 0.26775,-0.67134 0.85195,-1.15641 1.55998,-1.29822 l 2.47826,-0.4953 c 0.21555,0.69321 0.85655,1.20156 1.61996,1.20156 0.76376,0 1.4037,-0.50835 1.6196,-1.20156 l 2.47827,0.4953 c 0.70908,0.14181 1.29222,0.62688 1.56033,1.29822 l 0.10443,0.26035 z m 4.91031,-2.66841 c 0.27305,0.0702 0.55739,0.11148 0.85231,0.11148 0.29492,0 0.57891,-0.0413 0.85231,-0.11148 v 0.11148 c 0,0.4699 -0.38241,0.85231 -0.85231,0.85231 -0.4699,0 -0.85231,-0.38241 -0.85231,-0.85231 z m -1.70462,-3.29742 v -1.72437 c 0.94897,-0.0882 1.83656,-0.46779 2.55693,-1.09644 0.72037,0.62865 1.60761,1.00824 2.55658,1.09644 v 1.72437 c 0,1.41005 -1.14618,2.55694 -2.55658,2.55694 -1.41005,0 -2.55693,-1.14689 -2.55693,-2.55694 m -1.27812,-0.85231 c 0,-0.31397 0.17216,-0.58596 0.4258,-0.73342 v 1.4672 c -0.25364,-0.14782 -0.4258,-0.41981 -0.4258,-0.73378 m 3.83505,-5.96582 c 2.1142,0 3.8354,1.72085 3.8354,3.8354 v 0.66322 c -0.25224,-0.14676 -0.54046,-0.23707 -0.85266,-0.23707 -0.98496,0 -1.91135,-0.38382 -2.6088,-1.08091 l -0.37394,-0.37394 -0.3743,0.37394 c -0.69709,0.69709 -1.62348,1.08091 -2.60879,1.08091 -0.31186,0 -0.60043,0.0903 -0.85196,0.23707 v -0.66322 c 0,-2.11455 1.7205,-3.8354 3.83505,-3.8354 m -0.20602,-9.37154 c 0.29421,0.35736 1.04916,1.13806 2.42182,1.74448 -0.72531,1.45415 -1.27917,3.169 -1.3522,5.06977 h -4.26156 c 0.11536,-2.69381 1.32292,-5.10963 3.19194,-6.81425 m 16.38829,6.81496 h -0.84138 v 0.85195 h 0.83397 c -0.0293,0.68933 -0.12206,1.36949 -0.29316,2.0313 -0.82656,-0.73096 -1.90994,-1.17899 -3.09774,-1.17899 -0.32526,0 -0.64241,0.0335 -0.94897,0.0967 0.0395,-0.31679 0.0656,-0.63288 0.0776,-0.94897 h 2.57563 v -0.85195 h -2.56787 c -0.073,-1.90148 -0.62724,-3.61597 -1.3522,-5.07048 1.37231,-0.60642 2.12761,-1.38642 2.42182,-1.74413 1.86867,1.70427 3.07658,4.12009 3.19229,6.81461 m 0.43674,7.0552 c -0.25188,-0.14676 -0.54011,-0.23707 -0.85231,-0.23707 -0.98531,0 -1.91171,-0.38382 -2.60844,-1.08091 l -0.3743,-0.37394 -0.3743,0.37394 c -0.69708,0.69709 -1.62348,1.08091 -2.60843,1.08091 -0.31221,0 -0.60043,0.0903 -0.85267,0.23707 v -0.66322 c 0,-2.11455 1.72085,-3.8354 3.8354,-3.8354 2.11455,0 3.83505,1.72085 3.83505,3.8354 z m -0.42616,2.20098 v -1.4672 c 0.25365,0.14746 0.42616,0.41945 0.42616,0.73342 0,0.31397 -0.17251,0.58596 -0.42616,0.73378 m -4.2612,3.41595 c 0.2727,0.0702 0.55704,0.11147 0.85231,0.11147 0.29492,0 0.57926,-0.0413 0.85231,-0.11147 v 0.11147 c 0,0.4699 -0.38241,0.85231 -0.85231,0.85231 -0.4699,0 -0.85231,-0.38241 -0.85231,-0.85231 z m -5.11351,-6.68726 c 0.44309,0.0159 0.87559,0.0564 1.29257,0.12206 -0.006,0.0949 -0.0145,0.18874 -0.0145,0.28505 v 2.13042 0.59443 c 0,0.3489 -0.0773,0.68474 -0.21484,0.99272 -0.35207,0.0536 -0.70661,0.0931 -1.06327,0.1076 z m -2.13078,2.53753 v -2.13042 c 0,-0.0963 -0.009,-0.19015 -0.0141,-0.28505 0.41663,-0.0656 0.84914,-0.10618 1.29258,-0.12206 v 4.22734 c -0.67734,-0.03 -1.35079,-0.12912 -2.00731,-0.29563 0.43921,-0.30939 0.72884,-0.81774 0.72884,-1.39418 m -1.27811,0.73378 v -1.4672 c 0.25329,0.14746 0.42615,0.41945 0.42615,0.73342 0,0.31397 -0.17286,0.58596 -0.42615,0.73378 m -1.56457,-7.17233 c -0.067,-0.41028 -0.10408,-0.82197 -0.12171,-1.2319 h 4.24286 v 4.27179 c -0.48578,0.0159 -0.9645,0.0603 -1.42311,0.13194 -0.35772,-1.42804 -1.36702,-2.59997 -2.69804,-3.17183 m 4.12115,-6.35987 v 4.27602 h -4.24993 c 0.0762,-1.77342 0.61666,-3.38879 1.31586,-4.7625 0.80751,0.26246 1.77941,0.44803 2.93406,0.48648 m -3.34822,-1.54517 c -1.27071,-0.54681 -1.93922,-1.25448 -2.17029,-1.53776 1.3649,-1.04457 3.01061,-1.73813 4.80272,-1.94698 -0.71544,0.73413 -1.74696,1.93146 -2.63243,3.48474 m 3.34822,-2.98767 v 3.68159 c -0.98461,-0.0349 -1.81999,-0.18345 -2.51849,-0.39476 0.86784,-1.48414 1.8662,-2.62114 2.51849,-3.28683 m 1.56774,-0.49777 c 1.79246,0.20955 3.43817,0.90276 4.80272,1.94698 -0.23072,0.28398 -0.89924,0.99165 -2.16994,1.53811 -0.88582,-1.55293 -1.9177,-2.75026 -2.63278,-3.48509 m -0.71543,4.17936 v -3.68159 c 0.65158,0.66569 1.65064,1.80304 2.51812,3.28683 -0.69814,0.21096 -1.53387,0.35983 -2.51812,0.39476 m 0,5.12727 v -4.27602 c 1.15429,-0.0384 2.12619,-0.22402 2.9337,-0.48719 0.69991,1.37442 1.24001,2.98944 1.31586,4.7625 h -4.24956 z m 2.55658,9.25618 c -0.25365,-0.14782 -0.42616,-0.41981 -0.42616,-0.73378 0,-0.31397 0.17251,-0.58596 0.42616,-0.73342 z m 3.40924,2.67547 c -1.41041,0 -2.55658,-1.14689 -2.55658,-2.55694 v -1.72437 c 0.94862,-0.0882 1.83621,-0.46779 2.55658,-1.09644 0.72002,0.62865 1.60761,1.00824 2.55693,1.09644 v 1.72437 c 0,1.41005 -1.14688,2.55694 -2.55693,2.55694 m -4.54272,-6.67562 c -0.45896,-0.0716 -0.93733,-0.11571 -1.4231,-0.13194 v -4.27214 h 4.24215 c -0.0173,0.40993 -0.054,0.82162 -0.12171,1.2319 -1.33033,0.57186 -2.33962,1.74379 -2.69734,3.17218 m -11.33686,-2.3749 c -0.17075,-0.66146 -0.26741,-1.34091 -0.29669,-2.02918 h 4.26332 c 0.0123,0.31609 0.0381,0.63218 0.078,0.94898 -0.30656,-0.0632 -0.62371,-0.0967 -0.94897,-0.0967 -1.18675,0 -2.26871,0.44697 -3.09562,1.17686 m 12.44846,9.89895 c -0.34043,-0.0219 -0.98566,-0.58703 -1.506,-1.20298 0.49212,-0.43815 0.83502,-1.01282 0.99624,-1.64641 0.18803,0.12876 0.40428,0.21943 0.63606,0.26388 0.22472,0.90664 0.81209,1.6704 1.6002,2.12795 v 0.11254 z m 8.36789,-1.20298 c -0.5207,0.6156 -1.16522,1.18075 -1.506,1.20227 l -1.7265,-0.34502 v -0.11218 c 0.78846,-0.45791 1.37548,-1.22132 1.60091,-2.12796 0.23142,-0.0448 0.44732,-0.13511 0.63535,-0.26387 0.16122,0.63394 0.50447,1.20826 0.99624,1.64676 m 1.51271,3.18665 c -0.3242,-0.81175 -0.9786,-1.42699 -1.78964,-1.70815 0.58914,-0.47908 1.08091,-1.10773 1.22061,-1.29435 l 0.27023,-0.36054 -0.37465,-0.25011 c -0.68156,-0.45403 -1.08867,-1.21462 -1.08867,-2.03377 v -0.59443 -2.13042 c 0,-1.0407 -0.34467,-1.99955 -0.92075,-2.77778 0.32279,-1.0287 0.49459,-2.09832 0.49459,-3.18805 0,-5.87445 -4.77908,-10.65353 -10.65318,-10.65353 -5.87445,0 -10.65318,4.77908 -10.65318,10.65353 0,1.08973 0.16933,2.16076 0.49212,3.19017 -0.57432,0.77823 -0.91828,1.73637 -0.91828,2.77566 v 2.13042 c 0,0.82974 0.59584,1.52012 1.38219,1.67217 0.22471,0.90664 0.81209,1.6704 1.6009,2.12795 v 0.11254 l -2.56081,0.51188 c -0.99272,0.19826 -1.80905,0.87736 -2.18511,1.81681 l -0.5715,1.4291 h 12.78432 1.25871 12.78396 z"
       style="fill:#242424;fill-opacity:1;fill-rule:nonzero;stroke:none;stroke-width:0.35277775"
       id="path10352"
       inkscape:connector-curvature="0" />
  </g>
</svg>
