<?xml version="1.0" encoding="UTF-8" standalone="no"?>
<!-- Created with Inkscape (http://www.inkscape.org/) -->

<svg
   xmlns:dc="http://purl.org/dc/elements/1.1/"
   xmlns:cc="http://creativecommons.org/ns#"
   xmlns:rdf="http://www.w3.org/1999/02/22-rdf-syntax-ns#"
   xmlns:svg="http://www.w3.org/2000/svg"
   xmlns="http://www.w3.org/2000/svg"
   xmlns:sodipodi="http://sodipodi.sourceforge.net/DTD/sodipodi-0.dtd"
   xmlns:inkscape="http://www.inkscape.org/namespaces/inkscape"
   width="27.497969mm"
   height="27.497969mm"
   viewBox="0 0 27.497968 27.497968"
   version="1.1"
   id="svg10336"
   inkscape:version="0.92.3 (2405546, 2018-03-11)"
   sodipodi:docname="icon_nspcc_3.svg">
  <defs
     id="defs10330" />
  <sodipodi:namedview
     id="base"
     pagecolor="#ffffff"
     bordercolor="#666666"
     borderopacity="1.0"
     inkscape:pageopacity="0.0"
     inkscape:pageshadow="2"
     inkscape:zoom="2.8204955"
     inkscape:cx="81.641629"
     inkscape:cy="80.967416"
     inkscape:document-units="mm"
     inkscape:current-layer="layer1"
     showgrid="false"
     inkscape:window-width="3840"
     inkscape:window-height="2049"
     inkscape:window-x="0"
     inkscape:window-y="55"
     inkscape:window-maximized="1" />
  <metadata
     id="metadata10333">
    <rdf:RDF>
      <cc:Work
         rdf:about="">
        <dc:format>image/svg+xml</dc:format>
        <dc:type
           rdf:resource="http://purl.org/dc/dcmitype/StillImage" />
        <dc:title></dc:title>
      </cc:Work>
    </rdf:RDF>
  </metadata>
  <g
     inkscape:label="Layer 1"
     inkscape:groupmode="layer"
     id="layer1"
     transform="translate(-52.860295,-6.6865662)">
    <g
       id="g9409"
       transform="matrix(0.35277777,0,0,-0.35277777,66.609288,15.556773)"
       style="fill:#03e39c;fill-opacity:1">
      <path
         d="m 0,0 c 7.638,0 13.829,-6.192 13.829,-13.83 0,-7.637 -6.191,-13.829 -13.829,-13.829 -7.638,0 -13.83,6.192 -13.83,13.829 C -13.83,-6.192 -7.638,0 0,0"
         style="fill:#03e39c;fill-opacity:1;fill-rule:nonzero;stroke:none"
         id="path9411"
         inkscape:connector-curvature="0" />
    </g>
    <path
       inkscape:connector-curvature="0"
       id="path9415"
       style="fill:#242424;fill-opacity:1;fill-rule:nonzero;stroke:none;stroke-width:0.35277775"
       d="m 70.763723,24.423243 c -0.20955,-0.173918 -0.637461,-0.486127 -1.287992,-0.765527 0.349594,-0.792691 0.602906,-1.721908 0.661458,-2.778479 h 2.215436 c -0.105463,1.370896 -0.690033,2.607733 -1.588902,3.544006 m -9.897878,-3.544006 h 2.21615 c 0.05821,1.056571 0.311494,1.985788 0.661459,2.778479 -0.650875,0.2794 -1.078812,0.591609 -1.288362,0.765527 -0.899584,-0.936273 -1.484128,-2.17311 -1.589247,-3.544006 m 1.588903,-4.431242 c 0.209206,0.173567 0.63746,0.48613 1.287991,0.76553 -0.349594,0.792337 -0.602535,1.721554 -0.661114,2.778477 h -2.21615 c 0.105489,-1.371248 0.690033,-2.608085 1.589273,-3.544007 m 4.597744,3.544007 v -2.231319 c 0.595497,-0.03246 1.119372,-0.127 1.576916,-0.253648 0.321734,0.709084 0.559859,1.54164 0.619496,2.484967 z m 0,3.118201 v -2.230966 h 2.196412 c -0.05964,0.941917 -0.29845,1.774121 -0.6223,2.483908 -0.456856,-0.126294 -0.980017,-0.220837 -1.574112,-0.252942 m 2.020358,1.344438 c 0.481912,0.201435 0.820208,0.421217 1.015312,0.567619 -0.637487,0.484716 -1.376204,0.840316 -2.181939,1.026231 0.373591,-0.406048 0.791289,-0.939096 1.166627,-1.59385 m -2.020358,1.196975 v -1.654881 c 0.423333,0.02611 0.805391,0.08855 1.146175,0.17145 -0.382403,0.63006 -0.802217,1.130652 -1.146175,1.483431 m -1.740959,0.396875 c -0.805021,-0.185915 -1.543738,-0.541515 -2.181913,-1.026231 0.195422,-0.145698 0.5334,-0.365832 1.015286,-0.567619 0.376423,0.654754 0.79375,1.187802 1.166627,1.59385 m 0.854075,-2.05105 v 1.658409 c -0.345016,-0.35278 -0.765863,-0.85443 -1.149694,-1.486255 0.341842,-0.08325 0.725303,-0.14605 1.149694,-0.172154 m 0,-3.118204 v 2.230966 c -0.595127,0.03246 -1.119346,0.127355 -1.57726,0.254 -0.321734,-0.709435 -0.559515,-1.541991 -0.619469,-2.484966 z m 0,-3.118554 v 2.231319 h -2.196385 c 0.05998,-0.941917 0.298794,-1.774473 0.621956,-2.48426 0.4572,0.126645 0.98036,0.220837 1.574429,0.252941 M 64.14525,16.416245 c -0.481886,-0.201435 -0.819838,-0.421568 -1.01563,-0.567618 0.637461,-0.484717 1.376892,-0.839965 2.181913,-1.026232 -0.372877,0.4064 -0.78986,0.939449 -1.166283,1.59385 m 2.020358,-1.197326 V 16.8738 c -0.422963,-0.02646 -0.804677,-0.08855 -1.145804,-0.17145 0.382746,-0.629708 0.801846,-1.1303 1.145804,-1.483431 m 1.741329,-0.396524 c 0.805021,0.186267 1.544108,0.541515 2.181569,1.026232 -0.195077,0.14605 -0.533056,0.365831 -1.015656,0.567618 -0.375708,-0.654401 -0.79338,-1.18745 -1.165913,-1.59385 m -0.854445,0.393349 c 0.344672,0.352425 0.765889,0.853723 1.14972,1.486251 -0.341498,0.08326 -0.724958,0.14605 -1.14972,0.172157 z m 3.083983,4.776258 c -0.05784,-1.056923 -0.311838,-1.98614 -0.661088,-2.778477 0.650505,-0.2794 1.078442,-0.591963 1.287621,-0.76553 0.89924,0.935922 1.483784,2.173113 1.588929,3.544007 z M 66.60942,13.78276 c -3.668553,0 -6.653053,2.9845 -6.653053,6.652684 0,3.668534 2.9845,6.653034 6.653053,6.653034 3.668184,0 6.652313,-2.9845 6.652313,-6.653034 0,-3.668184 -2.984129,-6.652684 -6.652313,-6.652684" />
    <g
       id="g9417"
       transform="matrix(0.35277777,0,0,-0.35277777,78.140703,21.766052)"
       style="fill:#242424;fill-opacity:1">
      <path
         d="m 0,0 c -2.079,0 -3.771,1.692 -3.771,3.771 0,2.08 1.692,3.772 3.771,3.772 2.079,0 3.771,-1.692 3.771,-3.772 C 3.771,1.692 2.079,0 0,0 m -7.86,-13.925 c -0.31,0.047 -0.619,0.096 -0.941,0.096 -1.278,0 -2.467,-0.389 -3.461,-1.047 l -3.535,3.535 -1.777,-1.778 3.535,-3.535 c -0.659,-0.995 -1.048,-2.183 -1.048,-3.462 0,-0.321 0.048,-0.631 0.096,-0.94 l -12.371,-4.557 c -0.898,1.443 -2.349,2.507 -4.069,2.857 v 3.898 h -2.514 v -3.899 c -1.719,-0.351 -3.169,-1.414 -4.069,-2.857 l -12.371,4.556 c 0.048,0.311 0.096,0.621 0.096,0.942 0,1.279 -0.389,2.467 -1.047,3.462 l 3.535,3.535 -1.777,1.778 -3.535,-3.535 c -0.995,0.658 -2.183,1.047 -3.462,1.047 -0.321,0 -0.631,-0.049 -0.941,-0.096 l -4.556,12.371 c 1.443,0.898 2.507,2.348 2.857,4.068 h 3.898 v 2.515 h -3.9 c -0.35,1.719 -1.414,3.169 -2.857,4.068 l 4.557,12.371 c 0.311,-0.048 0.621,-0.095 0.942,-0.095 1.279,0 2.467,0.388 3.462,1.047 l 3.536,-3.536 1.777,1.778 -3.536,3.536 c 0.658,0.993 1.047,2.182 1.047,3.461 0,0.321 -0.048,0.631 -0.096,0.94 l 12.371,4.557 c 0.899,-1.443 2.349,-2.507 4.069,-2.857 v -3.898 h 2.514 V 30.3 c 1.719,0.351 3.17,1.414 4.069,2.858 L -14.991,28.6 c -0.048,-0.31 -0.096,-0.62 -0.096,-0.941 0,-1.279 0.389,-2.468 1.048,-3.461 l -3.537,-3.536 1.778,-1.778 3.536,3.536 c 0.994,-0.659 2.183,-1.047 3.461,-1.047 0.322,0 0.631,0.047 0.941,0.095 L -3.303,9.097 C -4.746,8.199 -5.81,6.749 -6.16,5.029 h -3.898 V 2.514 h 3.899 c 0.35,-1.718 1.414,-3.169 2.857,-4.068 z m -0.941,-9.963 c -2.079,0 -3.771,1.694 -3.771,3.772 0,2.08 1.692,3.772 3.771,3.772 2.079,0 3.772,-1.692 3.772,-3.772 0,-2.078 -1.693,-3.772 -3.772,-3.772 m -23.887,-8.8 c -2.08,0 -3.771,1.693 -3.771,3.772 0,2.079 1.691,3.771 3.771,3.771 2.08,0 3.772,-1.692 3.772,-3.771 0,-2.079 -1.692,-3.772 -3.772,-3.772 m -23.887,8.8 c -2.079,0 -3.772,1.694 -3.772,3.772 0,2.08 1.693,3.772 3.772,3.772 2.08,0 3.772,-1.692 3.772,-3.772 0,-2.078 -1.692,-3.772 -3.772,-3.772 M -69.146,3.771 c 0,2.08 1.691,3.772 3.771,3.772 2.079,0 3.771,-1.692 3.771,-3.772 0,-2.079 -1.692,-3.771 -3.771,-3.771 -2.08,0 -3.771,1.692 -3.771,3.771 m 12.571,27.659 c 2.08,0 3.772,-1.692 3.772,-3.771 0,-2.08 -1.692,-3.772 -3.772,-3.772 -2.079,0 -3.772,1.692 -3.772,3.772 0,2.079 1.693,3.771 3.772,3.771 m 23.887,8.801 c 2.08,0 3.772,-1.692 3.772,-3.772 0,-2.08 -1.692,-3.771 -3.772,-3.771 -2.08,0 -3.771,1.691 -3.771,3.771 0,2.08 1.691,3.772 3.771,3.772 M -8.801,31.43 c 2.079,0 3.772,-1.692 3.772,-3.771 0,-2.08 -1.693,-3.772 -3.772,-3.772 -2.079,0 -3.771,1.692 -3.771,3.772 0,2.079 1.692,3.771 3.771,3.771 M 0,10.058 c -0.322,0 -0.631,-0.048 -0.94,-0.096 l -4.558,12.371 c 1.783,1.11 2.983,3.074 2.983,5.326 0,3.466 -2.82,6.286 -6.286,6.286 -2.252,0 -4.215,-1.201 -5.325,-2.985 l -12.371,4.558 c 0.048,0.31 0.096,0.619 0.096,0.941 0,3.466 -2.821,6.286 -6.287,6.286 -3.466,0 -6.286,-2.82 -6.286,-6.286 0,-0.322 0.048,-0.631 0.096,-0.94 l -12.371,-4.558 c -1.11,1.783 -3.074,2.984 -5.326,2.984 -3.466,0 -6.286,-2.82 -6.286,-6.286 0,-2.252 1.201,-4.216 2.985,-5.326 L -64.434,9.962 c -0.31,0.048 -0.62,0.096 -0.941,0.096 -3.467,0 -6.286,-2.82 -6.286,-6.287 0,-3.465 2.819,-6.286 6.286,-6.286 0.321,0 0.631,0.048 0.94,0.096 l 4.557,-12.371 c -1.782,-1.109 -2.983,-3.074 -2.983,-5.326 0,-3.465 2.82,-6.285 6.286,-6.285 2.252,0 4.216,1.201 5.326,2.984 l 12.371,-4.557 c -0.048,-0.311 -0.096,-0.621 -0.096,-0.942 0,-3.466 2.82,-6.286 6.286,-6.286 3.466,0 6.287,2.82 6.287,6.286 0,0.321 -0.048,0.631 -0.096,0.94 l 12.371,4.557 c 1.11,-1.781 3.073,-2.982 5.325,-2.982 3.466,0 6.286,2.82 6.286,6.285 0,2.252 -1.2,4.217 -2.984,5.326 l 4.558,12.371 c 0.31,-0.048 0.619,-0.096 0.941,-0.096 3.466,0 6.286,2.821 6.286,6.286 0,3.467 -2.82,6.287 -6.286,6.287"
         style="fill:#242424;fill-opacity:1;fill-rule:nonzero;stroke:none"
         id="path9419"
         inkscape:connector-curvature="0" />
    </g>
    <g
       id="g9421"
       transform="matrix(0.35277777,0,0,-0.35277777,66.609288,8.0170315)"
       style="fill:#03e39c;fill-opacity:1">
      <path
         d="m 0,0 c 1.389,0 2.515,-1.126 2.515,-2.515 0,-1.388 -1.126,-2.514 -2.515,-2.514 -1.389,0 -2.515,1.126 -2.515,2.514 C -2.515,-1.126 -1.389,0 0,0"
         style="fill:#03e39c;fill-opacity:1;fill-rule:nonzero;stroke:none"
         id="path9423"
         inkscape:connector-curvature="0" />
    </g>
    <g
       id="g9425"
       transform="matrix(0.35277777,0,0,-0.35277777,75.036003,11.121721)"
       style="fill:#03e39c;fill-opacity:1">
      <path
         d="m 0,0 c 1.389,0 2.515,-1.125 2.515,-2.514 0,-1.389 -1.126,-2.515 -2.515,-2.515 -1.389,0 -2.515,1.126 -2.515,2.515 C -2.515,-1.125 -1.389,0 0,0"
         style="fill:#03e39c;fill-opacity:1;fill-rule:nonzero;stroke:none"
         id="path9427"
         inkscape:connector-curvature="0" />
    </g>
    <g
       id="g9429"
       transform="matrix(0.35277777,0,0,-0.35277777,58.182229,11.121721)"
       style="fill:#03e39c;fill-opacity:1">
      <path
         d="m 0,0 c 1.389,0 2.515,-1.125 2.515,-2.514 0,-1.389 -1.126,-2.515 -2.515,-2.515 -1.389,0 -2.514,1.126 -2.514,2.515 C -2.514,-1.125 -1.389,0 0,0"
         style="fill:#03e39c;fill-opacity:1;fill-rule:nonzero;stroke:none"
         id="path9431"
         inkscape:connector-curvature="0" />
    </g>
    <g
       id="g9433"
       transform="matrix(0.35277777,0,0,-0.35277777,75.036003,27.97515)"
       style="fill:#03e39c;fill-opacity:1">
      <path
         d="m 0,0 c 1.389,0 2.515,-1.127 2.515,-2.516 0,-1.388 -1.126,-2.513 -2.515,-2.513 -1.389,0 -2.515,1.125 -2.515,2.513 C -2.515,-1.127 -1.389,0 0,0"
         style="fill:#03e39c;fill-opacity:1;fill-rule:nonzero;stroke:none"
         id="path9435"
         inkscape:connector-curvature="0" />
    </g>
    <g
       id="g9437"
       transform="matrix(0.35277777,0,0,-0.35277777,58.182229,27.97515)"
       style="fill:#03e39c;fill-opacity:1">
      <path
         d="m 0,0 c 1.389,0 2.515,-1.127 2.515,-2.516 0,-1.388 -1.126,-2.513 -2.515,-2.513 -1.389,0 -2.514,1.125 -2.514,2.513 C -2.514,-1.127 -1.389,0 0,0"
         style="fill:#03e39c;fill-opacity:1;fill-rule:nonzero;stroke:none"
         id="path9439"
         inkscape:connector-curvature="0" />
    </g>
    <g
       id="g9441"
       transform="matrix(0.35277777,0,0,-0.35277777,55.077847,19.548454)"
       style="fill:#03e39c;fill-opacity:1">
      <path
         d="m 0,0 c 1.389,0 2.514,-1.126 2.514,-2.515 0,-1.388 -1.125,-2.514 -2.514,-2.514 -1.389,0 -2.515,1.126 -2.515,2.514 C -2.515,-1.126 -1.389,0 0,0"
         style="fill:#03e39c;fill-opacity:1;fill-rule:nonzero;stroke:none"
         id="path9443"
         inkscape:connector-curvature="0" />
    </g>
    <g
       id="g9445"
       transform="matrix(0.35277777,0,0,-0.35277777,78.140703,19.548454)"
       style="fill:#03e39c;fill-opacity:1">
      <path
         d="m 0,0 c 1.389,0 2.514,-1.126 2.514,-2.515 0,-1.388 -1.125,-2.514 -2.514,-2.514 -1.389,0 -2.515,1.126 -2.515,2.514 C -2.515,-1.126 -1.389,0 0,0"
         style="fill:#03e39c;fill-opacity:1;fill-rule:nonzero;stroke:none"
         id="path9447"
         inkscape:connector-curvature="0" />
    </g>
    <g
       id="g9449"
       transform="matrix(0.35277777,0,0,-0.35277777,66.609288,31.079877)"
       style="fill:#03e39c;fill-opacity:1">
      <path
         d="m 0,0 c 1.389,0 2.515,-1.126 2.515,-2.515 0,-1.388 -1.126,-2.514 -2.515,-2.514 -1.389,0 -2.515,1.126 -2.515,2.514 C -2.515,-1.126 -1.389,0 0,0"
         style="fill:#03e39c;fill-opacity:1;fill-rule:nonzero;stroke:none"
         id="path9451"
         inkscape:connector-curvature="0" />
    </g>
  </g>
</svg>
