<?xml version="1.0" encoding="utf-8"?>
<!-- Generator: Adobe Illustrator 25.0.1, SVG Export Plug-In . SVG Version: 6.00 Build 0)  -->
<svg version="1.1" id="Слой_1" xmlns="http://www.w3.org/2000/svg" xmlns:xlink="http://www.w3.org/1999/xlink" x="0px" y="0px"
	 viewBox="0 0 24 24" style="enable-background:new 0 0 24 24;" xml:space="preserve">
<style type="text/css">
	.st0{display:none;fill-rule:evenodd;clip-rule:evenodd;}
	.st1{display:none;}
	.st2{display:inline;fill-rule:evenodd;clip-rule:evenodd;}
	.st3{display:inline;}
	.st4{fill-rule:evenodd;clip-rule:evenodd;}
	.st5{fill:#1C868E;}
	.st6{fill:#40C4DF;}
	.st7{fill:#7BEFE4;}
	.st8{fill:#00AF92;}
	.st9{fill:#491352;}
</style>
<path class="st0" d="M2.8,6.9c0-0.3-0.1-0.6-0.3-0.8L0.3,3.4V3h7l5.4,11.8L17.4,3H24v0.4l-1.9,1.8c-0.2,0.1-0.2,0.3-0.2,0.5v13.5
	c0,0.2,0,0.4,0.2,0.5l1.9,1.8v0.4h-9.4v-0.4l1.9-1.9c0.2-0.2,0.2-0.2,0.2-0.5V8.3L11.3,22h-0.7L4.3,8.3v9.2
	c-0.1,0.4,0.1,0.8,0.3,1.1l2.5,3.1V22H0v-0.4l2.5-3.1c0.3-0.3,0.4-0.7,0.3-1.1C2.8,17.5,2.8,6.9,2.8,6.9z"/>
<g class="st1">
	<path class="st2" d="M1.9,11C1.8,11,1.8,11,1.9,11l0.2-0.4c0,0,0.1-0.1,0.1-0.1h4c0,0,0.1,0,0,0.1L6,11C6,11,6,11,5.9,11L1.9,11z"
		/>
	<path class="st2" d="M0.2,12C0.2,12,0.1,12,0.2,12l0.2-0.4c0,0,0.1-0.1,0.1-0.1h5.1c0,0,0.1,0,0.1,0.1L5.6,12c0,0-0.1,0.1-0.1,0.1
		L0.2,12z"/>
	<path class="st2" d="M2.9,13.1C2.9,13.1,2.8,13,2.9,13.1L3,12.7c0,0,0.1-0.1,0.1-0.1h2.2c0,0,0.1,0,0.1,0.1l0,0.3
		c0,0,0,0.1-0.1,0.1L2.9,13.1z"/>
	<g transform="translate(55)" class="st3">
		<path class="st4" d="M-40.5,10.8c-0.7,0.2-1.2,0.3-1.9,0.5c-0.2,0-0.2,0.1-0.3-0.1c-0.2-0.2-0.3-0.3-0.5-0.4
			c-0.7-0.3-1.4-0.2-2,0.2c-0.8,0.5-1.2,1.2-1.1,2.1c0,0.9,0.6,1.6,1.5,1.8c0.8,0.1,1.4-0.2,1.9-0.7c0.1-0.1,0.2-0.3,0.3-0.4
			c-0.4,0-0.9,0-2.2,0c-0.2,0-0.3-0.1-0.2-0.3c0.1-0.3,0.4-0.9,0.6-1.2c0-0.1,0.1-0.2,0.3-0.2h4.1c0,0.3,0,0.6-0.1,0.9
			c-0.1,0.8-0.4,1.5-0.9,2.2c-0.8,1.1-1.9,1.7-3.2,1.9c-1.1,0.1-2.1-0.1-3-0.7c-0.8-0.6-1.3-1.5-1.4-2.5c-0.1-1.2,0.2-2.3,0.9-3.3
			c0.8-1,1.8-1.7,3.1-1.9c1-0.2,2.1-0.1,3,0.5c0.6,0.4,1,0.9,1.3,1.6C-40.3,10.7-40.4,10.8-40.5,10.8z"/>
		<path d="M-36.8,17c-1,0-1.9-0.3-2.7-1c-0.7-0.6-1.1-1.3-1.2-2.2c-0.2-1.3,0.1-2.4,0.9-3.4c0.8-1.1,1.8-1.6,3.1-1.9
			c1.1-0.2,2.2-0.1,3.2,0.6c0.9,0.6,1.4,1.4,1.6,2.5c0.2,1.5-0.2,2.7-1.3,3.8c-0.7,0.7-1.6,1.2-2.7,1.4
			C-36.2,16.9-36.5,16.9-36.8,17z M-34.2,12.5c0-0.1,0-0.3,0-0.4c-0.2-1.1-1.2-1.7-2.3-1.5c-1,0.2-1.7,0.9-2,1.9
			c-0.2,0.9,0.2,1.8,1,2.1c0.6,0.3,1.2,0.2,1.8-0.1C-34.7,14.1-34.2,13.4-34.2,12.5L-34.2,12.5z"/>
	</g>
</g>
<g class="st1">
	<circle class="st3" cx="12.1" cy="12" r="7.5"/>
	<path class="st3" d="M12.1,23.2c-6.2,0-11.2-5-11.2-11.2s5-11.2,11.2-11.2s11.2,5,11.2,11.2S18.3,23.2,12.1,23.2z M12.1,2.6
		c-5.2,0-9.4,4.2-9.4,9.4s4.2,9.4,9.4,9.4s9.4-4.2,9.4-9.4S17.3,2.6,12.1,2.6L12.1,2.6z"/>
</g>
<g>
	<path class="st5" d="M22.9,12.2c0,2.9-1.2,5.6-3.2,7.4c-1.7,1.7-4.1,2.7-6.7,2.9c-0.2,0-0.3,0-0.5,0c-2.8,0-5.3-1.1-7.2-2.9
		c-2-1.9-3.2-4.5-3.2-7.4c0-2.9,1.2-5.6,3.2-7.4C7.3,3,9.8,1.9,12.6,1.9c0.2,0,0.3,0,0.5,0c0,0,0,0,0,0c2.6,0.1,4.9,1.2,6.6,2.9
		C21.7,6.7,22.9,9.3,22.9,12.2L22.9,12.2z"/>
	<path class="st6" d="M22.9,12.2c0,2.9-1.2,5.6-3.2,7.4c-1.7,1.7-4.1,2.7-6.7,2.9c-2.2-0.3-4.2-1.3-5.8-2.8c-2-1.9-3.2-4.6-3.2-7.5
		c0-2.9,1.2-5.6,3.2-7.5c1.6-1.5,3.6-2.5,5.8-2.8c0,0,0,0,0,0c2.6,0.1,4.9,1.2,6.6,2.9C21.7,6.7,22.9,9.3,22.9,12.2L22.9,12.2z"/>
	<path class="st7" d="M22.1,4.8c0,1.3-1.1,2.4-2.4,2.4c-1.3,0-2.4-1.1-2.4-2.4c0-1.3,1.1-2.4,2.4-2.4C21,2.4,22.1,3.5,22.1,4.8z"/>
	<path class="st8" d="M19.6,6c-0.7,0-1.2-0.5-1.2-1.2c0-0.7,0.5-1.2,1.2-1.2c0.7,0,1.2,0.5,1.2,1.2C20.8,5.5,20.3,6,19.6,6L19.6,6z"
		/>
	<path class="st7" d="M15,12.3c0,1.3-1.1,2.4-2.4,2.4c-1.3,0-2.4-1.1-2.4-2.4c0-1.3,1.1-2.4,2.4-2.4C13.9,9.8,15,10.9,15,12.3z"/>
	<path class="st8" d="M12.6,13.5c-0.7,0-1.2-0.5-1.2-1.2c0-0.7,0.5-1.2,1.2-1.2s1.2,0.5,1.2,1.2S13.2,13.5,12.6,13.5z"/>
	<path class="st7" d="M5.5,8.1c0,1.3-1.1,2.4-2.4,2.4c-1.3,0-2.4-1.1-2.4-2.4c0-1.3,1.1-2.4,2.4-2.4C4.4,5.7,5.5,6.8,5.5,8.1z"/>
	<path class="st8" d="M3.1,9.3c-0.7,0-1.2-0.5-1.2-1.2c0-0.7,0.5-1.2,1.2-1.2s1.2,0.5,1.2,1.2C4.3,8.8,3.8,9.3,3.1,9.3L3.1,9.3z"/>
	<path class="st7" d="M19.6,17.8c0,1.3-1.1,2.4-2.4,2.4c-1.3,0-2.4-1.1-2.4-2.4c0-1.3,1.1-2.4,2.4-2.4
		C18.5,15.3,19.6,16.4,19.6,17.8L19.6,17.8z"/>
	<path class="st8" d="M17.1,19c-0.7,0-1.2-0.5-1.2-1.2c0-0.7,0.5-1.2,1.2-1.2c0.7,0,1.2,0.5,1.2,1.2C18.4,18.5,17.8,19,17.1,19z"/>
	<path class="st7" d="M8,19.7c0,1.3-1.1,2.4-2.4,2.4c-1.3,0-2.4-1.1-2.4-2.4c0-1.3,1.1-2.4,2.4-2.4C6.9,17.2,8,18.3,8,19.7L8,19.7z"
		/>
	<path class="st8" d="M5.6,20.9c-0.7,0-1.2-0.5-1.2-1.2s0.5-1.2,1.2-1.2c0.7,0,1.2,0.5,1.2,1.2C6.8,20.3,6.2,20.9,5.6,20.9L5.6,20.9
		z"/>
	<g>
		<path class="st9" d="M21.5,6.7c0.5-0.5,0.8-1.1,0.8-1.9c0-2.4-3-3.5-4.6-1.7C13.1,0.5,7.8,2,5.2,4.8l0,0c-0.3,0.3-0.6,0.6-0.9,1
			C2.6,4.9,0.5,6.1,0.5,8.1c0,1.1,0.7,2.1,1.7,2.5c-0.4,2.5,0.1,5.1,1.5,7.3c-1.6,1.7-0.4,4.4,1.9,4.4c0.8,0,1.4-0.3,1.9-0.8
			c1.5,0.8,3.3,1.3,5.1,1.3C20.8,22.7,25.9,13.7,21.5,6.7L21.5,6.7z M22.7,12.1h-4.1c-0.2-1.9-0.9-3.7-1.7-5.1
			c0.3-0.1,0.6-0.3,0.8-0.4c0.9,1,2.4,1.2,3.5,0.4C22.1,8.4,22.7,10.2,22.7,12.1L22.7,12.1z M18,15.3c-1.3-0.4-2.8,0.2-3.3,1.5
			c-0.6-0.1-1.3-0.2-2-0.2v-1.8c1.3-0.1,2.4-1.1,2.4-2.4h3.1C18.3,13.4,18.2,14.4,18,15.3L18,15.3z M19.1,18.9
			c-0.7,1.2-2.3,1.5-3.4,0.6c-1.6-1.4-0.7-4,1.4-4C18.9,15.5,20,17.4,19.1,18.9L19.1,18.9z M17.8,3.5L17.8,3.5
			c1.2-1.8,4.1-1,4.1,1.3c0,1.2-1,2.3-2.3,2.3C17.8,7.1,16.7,5,17.8,3.5L17.8,3.5z M13,2.1C13,2.1,13,2.1,13,2.1
			c1.6,0.1,3.2,0.6,4.4,1.2c-0.6,0.9-0.6,2,0,2.9c-0.3,0.1-0.5,0.3-0.8,0.4c-0.3-0.5-0.6-1-0.9-1.4C14.7,3.7,13.6,2.6,13,2.1
			C13,2.1,13,2.1,13,2.1L13,2.1z M12.7,2.3c0.7,0.6,2.3,2.2,3.6,4.5c-1.1,0.5-2.3,0.7-3.6,0.7V2.3z M12.7,7.9c1.3,0,2.6-0.3,3.8-0.8
			c0.8,1.5,1.5,3.2,1.7,5h-3c-0.1-1.3-1.1-2.3-2.4-2.4V7.9z M8.8,6.8c1.3-2.2,2.9-3.8,3.6-4.5v5.2C11.1,7.5,9.9,7.2,8.8,6.8z
			 M12.4,7.9v1.8c-1.3,0.1-2.3,1.1-2.4,2.4h-3c0.2-1.8,0.9-3.5,1.7-5C9.8,7.6,11.1,7.8,12.4,7.9L12.4,7.9z M7.2,3.7
			c0.1-0.2,2.5-1.4,4.9-1.5c0,0,0,0,0,0c0,0,0,0,0,0h0C10.8,3.4,9.4,5,8.5,6.6c-1-0.4-2-1.1-2.8-1.8C5.9,4.5,6.6,4,7.2,3.7L7.2,3.7z
			 M5.4,5.1C6.3,5.8,7.2,6.5,8.3,7c-0.8,1.5-1.5,3.2-1.7,5.1H2.4c0-0.5,0-0.9,0.1-1.4C5.3,11.3,6.9,7.6,4.6,6
			C4.8,5.6,5.1,5.3,5.4,5.1L5.4,5.1z M0.8,8.1c0-1.8,2.1-2.9,3.6-1.9c1.8,1.3,0.9,4.1-1.3,4.1C1.9,10.4,0.8,9.4,0.8,8.1L0.8,8.1z
			 M2.4,12.4h4.1c-0.1,1.9,0.3,3.7,1.2,5.4c0,0-0.1,0.1-0.2,0.1c-0.9-1-2.5-1.2-3.6-0.3C3,16.1,2.5,14.3,2.4,12.4L2.4,12.4z
			 M5.6,21.9c-1.9,0-3-2.3-1.7-3.8c1.4-1.5,3.9-0.6,3.9,1.5C7.8,20.9,6.8,21.9,5.6,21.9z M7.7,21.2c0.6-0.9,0.6-2.1,0-3
			c0.1,0,0.1-0.1,0.2-0.1c0.9,1.5,2.3,2.9,4.1,4.3C12,22.4,9.8,22.3,7.7,21.2L7.7,21.2z M12.4,22.2c-1.8-1.3-3.2-2.8-4.1-4.3
			c1.3-0.6,2.7-0.9,4.1-1V22.2z M12.4,16.6c-1.5,0-3,0.4-4.3,1c-0.9-1.6-1.3-3.4-1.2-5.2H10c0.1,1.3,1.1,2.3,2.4,2.4V16.6z
			 M10.3,12.1c0.1-1.3,1.2-2.2,2.4-2.1c1.2,0.1,2.2,1.2,2.1,2.4c-0.1,1.1-1,2-2.1,2.1C11.4,14.6,10.2,13.5,10.3,12.1L10.3,12.1z
			 M12.7,17c0.6,0,1.2,0.1,1.9,0.2c-0.2,1,0.1,2,0.9,2.6c-0.8,0.8-1.7,1.6-2.7,2.4V17z M13.2,22.4C13.2,22.4,13.1,22.4,13.2,22.4
			c1-0.8,1.9-1.5,2.6-2.4c1.1,0.7,2.6,0.5,3.4-0.6c0.1,0.1,0.2,0.2,0.3,0.2C17.8,21.2,15.6,22.2,13.2,22.4L13.2,22.4z M19.7,19.4
			c-0.1-0.1-0.2-0.2-0.3-0.3c0.8-1.3,0.3-3-1.1-3.7c0.3-1,0.4-2,0.3-3h4.1C22.7,15.1,21.6,17.6,19.7,19.4z"/>
		<path class="st9" d="M18.7,5.9c0.5,0.4,1.2,0.4,1.7,0c1.1-0.8,0.5-2.5-0.8-2.5C18.4,3.4,17.8,5,18.7,5.9L18.7,5.9z M19.6,3.8
			c1,0,1.4,1.3,0.6,1.8c-0.4,0.3-0.8,0.3-1.2,0C18.2,5.1,18.7,3.8,19.6,3.8z M13.9,12.4c0.1-0.7-0.4-1.4-1.2-1.5
			c-0.7-0.1-1.4,0.4-1.5,1.2c-0.1,0.8,0.5,1.6,1.4,1.6C13.3,13.6,13.9,13.1,13.9,12.4L13.9,12.4z M12.4,13.3c-0.5-0.1-0.8-0.5-0.8-1
			c0-1.4,2.3-1.3,2,0.2C13.5,13,12.9,13.4,12.4,13.3L12.4,13.3z M4.5,8.1c0-0.8-0.6-1.4-1.4-1.4c-1.4,0-1.9,1.9-0.6,2.6
			C3.4,9.8,4.5,9.1,4.5,8.1z M2.6,9C1.7,8.5,2.1,7.1,3.1,7.1c0.6,0,1,0.5,1,1C4.1,8.9,3.3,9.4,2.6,9z M15.8,17.8
			c0,1.5,2,1.9,2.6,0.6c0.1-0.2,0.1-0.4,0.1-0.6C18.5,16,15.8,15.9,15.8,17.8L15.8,17.8z M18.2,17.8c0,0.1,0,0.3-0.1,0.4
			c-0.4,1-2,0.7-2-0.4C16.1,16.4,18.2,16.5,18.2,17.8z M5.6,18.3c-0.8,0-1.4,0.6-1.4,1.4c0,1.3,1.7,1.9,2.5,0.8c0.2,0.1,0.1,0.1,0,0
			C7.4,19.6,6.7,18.3,5.6,18.3z M6.1,20.5c-0.7,0.4-1.6,0-1.6-0.9c0-0.6,0.5-1,1-1C6.6,18.6,7,20,6.1,20.5z"/>
	</g>
</g>
</svg>
